<svg width="97" height="96" viewBox="0 0 97 96" fill="none" xmlns="http://www.w3.org/2000/svg">
<g clip-path="url(#clip0_274_281)">
<path d="M16.0219 48.4606H4.24658V55.8622L10.3025 72.3477L20.7321 82.4408L26.7879 72.3477V61.5817L18.7134 55.8622L16.0219 48.4606Z" fill="#C2E189"/>
<path d="M52.6937 55.8622V48.4606H80.2816L77.5901 59.2266L62.7869 69.9926L49.6658 76.7214L46.9743 72.3477L44.6192 65.9554L52.6937 55.8622Z" fill="#C2E189"/>
<path d="M36.8811 32.648H46.9743V21.8819L44.6192 16.1625L36.8811 9.77014H28.4701L26.7879 13.471V26.2556L36.8811 32.648Z" fill="#C2E189"/>
<path d="M55.6669 5.65624L49.6658 13.471V24.5763L52.6937 28.0643H61.2689L68.6678 23.7307L74.0584 14.9577V3.54227L65.8139 2.80238L55.6669 5.65624Z" fill="#C2E189"/>
<path d="M96.4949 50.8022C96.2549 52.5853 96.0637 54.3778 95.7674 56.1516C92.7374 74.3091 78.8681 89.4853 61.0293 94.1897C35.0231 101.045 8.73369 85.5928 2.10931 59.551C1.19056 55.9397 0.731184 52.2666 0.688059 48.5428C0.659934 46.1485 1.69118 45.1078 4.06493 45.1078C17.5368 45.1078 31.0106 45.1078 44.4824 45.1078C44.8818 45.1078 45.2812 45.1078 45.7293 45.1078V35.7497C45.0431 35.7497 44.3699 35.7441 43.6987 35.7497C40.8243 35.7778 37.9762 35.7103 35.2087 34.7335C28.2112 32.2603 23.4037 25.6116 23.3306 18.1847C23.3062 15.6591 23.3137 13.1316 23.3306 10.606C23.3399 9.06283 24.3018 7.76908 25.7231 7.74845C29.2106 7.70158 32.7187 7.6022 36.1837 7.91533C40.1606 8.27345 43.5168 10.1916 46.3256 13.036C46.4531 13.1653 46.5937 13.2797 46.7924 13.4597C46.9518 13.0903 47.0887 12.7922 47.2106 12.4903C50.2106 5.09158 57.2999 0.259701 65.2818 0.199701C68.0887 0.179076 70.8956 0.188451 73.7024 0.199701C75.7312 0.207201 76.8599 1.30783 76.8412 3.31033C76.8074 6.89345 76.9537 10.4972 76.6331 14.056C75.8737 22.4522 68.7768 29.8041 60.4218 30.9347C57.9037 31.276 55.3237 31.1653 52.7718 31.2572C52.3443 31.2722 51.9168 31.2591 51.4462 31.2591V45.1078H52.6574C66.0674 45.1078 79.4774 45.1266 92.8874 45.0835C94.6199 45.0778 95.8424 45.6085 96.4987 47.2472V50.8022H96.4949ZM19.8262 50.7666C20.1937 52.051 20.4843 53.2285 20.8799 54.3722C21.0281 54.8016 21.3356 55.261 21.7031 55.516C23.6981 56.9053 25.7306 58.2366 27.7556 59.5828C29.5593 60.7828 30.4462 62.4628 30.4387 64.6285C30.4312 67.0603 30.4049 69.4941 30.4481 71.926C30.4743 73.411 30.1031 74.7385 29.3249 75.9985C27.8924 78.316 26.5106 80.6635 25.0181 83.146C39.5831 91.8872 54.4781 92.9672 69.3899 84.6085C82.4268 77.2997 89.2931 65.7066 90.8474 50.7947H83.0437C82.5393 53.5285 82.0237 56.1891 81.5662 58.8591C81.2512 60.6966 80.3212 62.0747 78.7518 63.0628C70.5281 68.2491 62.3193 73.4541 54.0899 78.6291C51.1781 80.461 48.0374 79.7616 46.0968 76.9078C45.1331 75.4903 44.1899 74.0597 43.2393 72.6328C41.4112 69.8916 41.4674 67.6885 43.4306 65.0747C45.5456 62.2585 47.6624 59.4422 49.7681 56.6203C49.9668 56.3522 50.2387 56.0428 50.2481 55.7466C50.2949 54.1041 50.2706 52.4578 50.2706 50.7685H19.8262V50.7666ZM50.8968 73.9941C51.2024 73.8103 51.4162 73.6847 51.6262 73.5535C59.0774 68.8472 66.5024 64.1016 73.9987 59.4703C75.4406 58.5797 76.3031 57.6178 76.4474 55.8872C76.5899 54.1997 77.0043 52.5347 77.3099 50.7947H55.8862C55.8862 52.576 55.8356 54.2878 55.9031 55.9941C55.9537 57.2485 55.5881 58.276 54.8249 59.2678C52.5262 62.2547 50.2799 65.281 48.0431 68.3147C47.8499 68.5772 47.6943 69.1153 47.8312 69.3347C48.7949 70.8947 49.8393 72.406 50.8987 73.9941H50.8968ZM6.51556 50.7253C6.47431 50.9447 6.45181 51.0047 6.45368 51.0628C6.46118 51.3122 6.46306 51.5616 6.48743 51.8091C7.51681 62.0916 11.7281 70.8553 19.0631 78.1228C19.6837 78.7378 21.2587 78.4978 21.7293 77.7253C22.6368 76.2366 23.5537 74.7535 24.4087 73.2347C24.6524 72.8016 24.7968 72.2541 24.8062 71.7553C24.8493 69.5747 24.7949 67.3922 24.8418 65.2135C24.8549 64.5647 24.6187 64.2103 24.1031 63.8728C21.8343 62.3935 19.5506 60.931 17.3606 59.341C16.7099 58.8685 16.1549 58.066 15.8868 57.2991C15.2099 55.3641 14.7374 53.3597 14.1412 51.3966C14.0624 51.136 13.7493 50.7572 13.5374 50.7535C11.2087 50.7066 8.87994 50.7253 6.51556 50.7253ZM55.5599 25.4822C55.6687 25.5553 55.7174 25.6135 55.7681 25.6172C63.8399 26.1722 69.6112 20.8772 70.7981 14.7553C71.3193 12.0685 71.1131 9.24095 71.2293 6.4772C71.2387 6.27283 71.1787 6.0647 71.1281 5.6897C68.2931 5.8172 65.4487 5.65408 62.7131 6.12845C55.5262 7.37345 50.6437 14.206 51.5006 21.511C51.7537 21.2785 51.9824 21.0853 52.1924 20.8753C54.2437 18.8278 56.2893 16.7747 58.3443 14.7291C59.6681 13.4128 61.4156 13.3303 62.5687 14.5153C63.7181 15.6966 63.6318 17.3541 62.3268 18.6666C60.2849 20.7235 58.2299 22.7672 56.1824 24.8185C55.9706 25.0303 55.7737 25.2553 55.5599 25.486V25.4822ZM28.9424 13.1691C28.9424 14.956 28.9312 16.5085 28.9443 18.061C28.9931 23.3635 32.5031 28.1016 37.5787 29.5828C38.8556 29.956 40.2168 30.0328 41.5406 30.2466C41.5649 30.151 41.5893 30.0535 41.6137 29.9578C41.4056 29.7366 41.2031 29.5116 40.9893 29.2978C38.9624 27.2672 36.9318 25.2441 34.9087 23.2097C33.5531 21.8485 33.4481 20.1853 34.6256 18.991C35.7862 17.8153 37.5206 17.9072 38.8518 19.231C40.9293 21.2972 42.9974 23.3747 45.0712 25.4447C45.2568 25.6303 45.4631 25.7953 45.7087 26.0128C45.7481 25.8235 45.7781 25.7391 45.7818 25.6528C45.9524 19.9697 41.7881 14.6072 36.1724 13.6078C33.8643 13.1972 31.4643 13.3078 28.9443 13.171L28.9424 13.1691Z" fill="#00B373"/>
</g>
<defs>
<clipPath id="clip0_274_281">
<rect width="96" height="96" fill="white" transform="translate(0.5)"/>
</clipPath>
</defs>
</svg>
