<svg width="97" height="96" viewBox="0 0 97 96" fill="none" xmlns="http://www.w3.org/2000/svg">
<g clip-path="url(#clip0_274_285)">
<path d="M29.6211 38.3346L38.3788 35.856L34.0826 25.611L25.49 21.6452L16.2365 23.7933L20.8632 34.6993L29.6211 38.3346Z" fill="#C2E189"/>
<path d="M41.3532 19.9928L48.9543 28.4201L56.3902 19.9928V12.0612L48.9543 2.14667L41.3532 12.0612V19.9928Z" fill="#C2E189"/>
<path d="M61.6779 26.7677L58.5383 36.6822L69.4443 38.3346L77.3759 33.5426L81.0112 23.7933L69.4443 21.6452L61.6779 26.7677Z" fill="#C2E189"/>
<path d="M48.9543 81.2974V70.8872H74.7321V81.2974H48.9543Z" fill="#C2E189"/>
<path d="M47.7537 0.09375H49.25C49.685 0.380625 50.1556 0.62625 50.5494 0.961875C52.7487 2.835 54.6275 4.98938 56.1462 7.45125C59.5044 12.8981 59.7706 18.4594 56.4369 23.9625C55.1581 26.0719 53.3994 27.8906 51.8656 29.8462C51.6631 30.105 51.3406 30.3862 51.335 30.6619C51.29 32.8294 51.3106 34.9969 51.3106 37.3331C52.5556 36.615 53.6356 35.9456 54.7587 35.3625C55.445 35.0044 55.7487 34.5019 56.0075 33.7725C56.7837 31.5806 57.5337 29.3475 58.6137 27.3C60.545 23.64 63.4437 20.9475 67.5275 19.8206C72.4681 18.4575 77.2944 19.1831 82.0081 20.9231C83.3731 21.4275 83.93 22.7569 83.6225 24.3281C83.0881 27.0637 82.2275 29.6888 80.9112 32.1544C78.9031 35.9156 76.1412 38.8481 71.945 40.1438C67.7469 41.4394 63.5656 41.0306 59.4125 39.9019C58.7919 39.7331 58.3081 39.7537 57.7475 40.0931C55.8519 41.2331 53.9375 42.3413 51.9987 43.4062C51.4475 43.7081 51.29 44.0513 51.2956 44.6512C51.3237 48.33 51.3087 52.0106 51.3087 55.6912V56.61C52.1412 56.61 52.8294 56.565 53.51 56.6231C54.155 56.6775 54.5075 56.4375 54.8281 55.8787C56.8494 52.3687 58.9325 48.8963 60.9406 45.3787C61.685 44.0756 62.6881 43.4906 64.2012 43.4944C73.8069 43.5244 83.4106 43.5187 93.0162 43.5C94.2894 43.4981 95.3694 43.7794 96.0369 44.9513C96.6875 46.0931 96.3856 47.1487 95.7575 48.2081C93.5506 51.9337 91.3569 55.6669 89.1987 59.4206C88.9212 59.9025 88.7562 60.5213 88.7562 61.0781C88.73 71.5556 88.7375 82.035 88.7375 92.5125C88.7375 94.8787 87.6969 95.9062 85.3044 95.9062C60.7625 95.9062 36.2187 95.9062 11.6769 95.9062C9.30311 95.9062 8.27374 94.8694 8.27186 92.4825C8.27186 82.005 8.27561 71.5256 8.25874 61.0481C8.25874 60.5756 8.16499 60.0412 7.93436 59.64C5.50999 55.4362 3.04999 51.2531 0.599365 47.0644C0.599365 46.5656 0.599365 46.0669 0.599365 45.5681C1.32312 43.9837 2.56061 43.4719 4.27811 43.485C12.5112 43.5431 20.7444 43.5337 28.9756 43.4906C30.5675 43.4831 31.6025 44.0944 32.3806 45.4594C34.3831 48.9787 36.4531 52.4606 38.5137 55.9481C38.6694 56.2106 38.9637 56.5725 39.2 56.5781C41.3394 56.6269 43.4825 56.6062 45.6181 56.6062C45.6575 56.4206 45.6931 56.3344 45.6931 56.2463C45.6969 52.2863 45.7119 48.3244 45.6725 44.3644C45.6687 44.0606 45.3537 43.6481 45.0706 43.4775C43.1469 42.3244 41.18 41.2425 39.2581 40.0894C38.6956 39.7519 38.21 39.7238 37.5931 39.9038C34.7881 40.7175 31.9194 41.0794 28.9981 40.8806C24.7944 40.5956 21.2225 38.9888 18.4869 35.715C15.6537 32.3231 14.1294 28.3406 13.3531 24.0487C13.0681 22.47 13.805 21.3337 15.3444 20.7787C18.1475 19.7663 21.0406 19.2019 24.0294 19.1494C28.7075 19.0669 32.8212 20.385 36.0312 23.955C38.615 26.8294 40.1112 30.255 41.0825 33.9469C41.1725 34.29 41.2906 34.7438 41.5475 34.905C42.8562 35.73 44.2137 36.4744 45.6969 37.3294C45.6969 35.0006 45.7119 32.8312 45.6762 30.6637C45.6725 30.4106 45.4025 30.135 45.2075 29.9137C44.3 28.8862 43.31 27.9263 42.4681 26.8481C40.0006 23.6888 38.1275 20.2013 38.2531 16.0969C38.4706 9.075 42.3687 4.11188 47.7575 0.095625L47.7537 0.09375ZM40.1469 62.2631V90.2194H83.0731V62.2631H40.1469ZM34.4262 62.2875H13.9569V90.2419H34.4262V62.2875ZM88.6681 49.1812C88.4169 49.1475 88.325 49.1231 88.2331 49.1231C80.78 49.1212 73.3269 49.1138 65.8737 49.1438C65.5625 49.1438 65.1294 49.4212 64.9606 49.6969C63.8525 51.5006 62.8006 53.3419 61.73 55.17C61.4712 55.6106 61.2144 56.0513 60.89 56.6062H63.695C70.3062 56.6062 76.9175 56.61 83.5287 56.5931C83.855 56.5931 84.3444 56.49 84.4812 56.2669C85.8894 53.9606 87.2412 51.6187 88.67 49.1812H88.6681ZM8.30561 49.1213C9.68186 51.4781 10.9869 53.6663 12.2394 55.8825C12.5581 56.4469 12.9256 56.625 13.5612 56.6213C19.5181 56.5969 25.4731 56.6063 31.43 56.6044C31.6925 56.6044 31.9569 56.5744 32.345 56.5519C30.9162 54.1144 29.5625 51.7763 28.1619 49.4663C28.0344 49.2563 27.5994 49.1419 27.305 49.1362C25.5912 49.1063 23.8756 49.1213 22.16 49.1213C17.6094 49.1213 13.0569 49.1213 8.30749 49.1213H8.30561ZM48.5112 25.1963C54.4306 19.1287 55.0025 13.2225 48.4906 6.84937C42.1962 13.095 42.4006 19.0238 48.5112 25.1963ZM61.625 34.5956C69.9556 36.9 75.2187 34.0069 77.5062 25.4756C69.0669 23.115 63.9387 26.1525 61.625 34.5956ZM35.3769 34.605C33.0725 26.0325 27.8281 23.1938 19.5031 25.4719C21.7737 34.1156 27.1569 36.8475 35.3769 34.605Z" fill="#00B373"/>
<path d="M61.5275 84.6787C57.3219 84.6787 53.1144 84.6825 48.9088 84.6787C46.7938 84.6769 45.6988 83.5725 45.6969 81.4444C45.6932 77.955 45.6913 74.4638 45.6969 70.9744C45.7007 68.9738 46.8275 67.8413 48.8207 67.8413C57.3275 67.8375 65.8344 67.8375 74.3413 67.8413C76.3944 67.8413 77.5044 68.9606 77.5063 71.0288C77.5119 74.5181 77.5119 78.0094 77.5063 81.4988C77.5025 83.5613 76.3907 84.6788 74.3338 84.6806C70.0644 84.6863 65.7969 84.6806 61.5275 84.6806V84.6787ZM51.3744 73.4925V78.9937H71.8438V73.4925H51.3744Z" fill="#00B373"/>
</g>
<defs>
<clipPath id="clip0_274_285">
<rect width="96" height="96" fill="white" transform="translate(0.5)"/>
</clipPath>
</defs>
</svg>
