<svg width="97" height="96" viewBox="0 0 97 96" fill="none" xmlns="http://www.w3.org/2000/svg">
<g clip-path="url(#clip0_274_284)">
<path d="M40.4482 52.696L30.7791 59.142L49.6339 68.0054L65.4267 59.142L61.3979 54.6298L48.0223 50.4398L40.4482 52.696Z" fill="#C2E189"/>
<path d="M39.4813 20.6268L48.8281 21.5937L59.9475 19.4987L66.7159 12.2469V2.73895L58.0137 4.51162L50.2784 9.82963L48.8281 18.0484L46.5719 9.82963L39.4813 4.51162L29.8121 2.73895L31.746 14.6642L39.4813 20.6268Z" fill="#C2E189"/>
<path d="M67.2242 0.0827332C69.4854 0.887108 69.9092 1.48148 70.0067 3.98461C70.1117 6.67898 69.8604 9.33961 69.1836 11.9515C67.4679 18.574 63.1479 22.4477 56.5254 23.8127C54.8548 24.1559 53.1429 24.2984 51.3767 24.5421V33.5309C52.2354 32.9515 53.0173 32.3477 53.8686 31.8677C54.8417 31.3202 55.8467 30.8065 56.8892 30.4127C58.3836 29.8502 59.9398 30.6059 60.4817 32.0421C61.0217 33.4802 60.2679 34.9109 58.8523 35.6684C57.3036 36.499 55.7211 37.3746 54.4198 38.5315C52.3067 40.4102 51.2567 42.889 51.3092 45.7727C51.3242 46.6071 51.3111 47.4434 51.3111 48.3134C55.0873 48.7634 58.6311 49.7477 61.7436 51.7971C63.5492 52.9859 65.1148 54.5346 66.8117 55.894C67.0742 56.104 67.5261 56.3402 67.7829 56.2502C72.8717 54.4915 78.0823 57.6846 78.9204 62.734C78.9411 62.854 78.9917 62.9665 79.0611 63.1877C80.6829 62.4115 82.2711 61.6577 83.8536 60.8927C85.8373 59.9327 87.9017 59.644 90.0279 60.2759C93.6842 61.3634 95.8648 63.8515 96.3223 67.6033C96.7686 71.254 95.2367 74.1227 92.0979 76.0296C88.8504 78.004 85.5467 79.8809 82.2654 81.7971C76.4567 85.1927 70.6704 88.624 64.8336 91.9709C56.6717 96.6508 48.2061 97.1459 39.5136 93.5759C33.8998 91.2696 28.3123 88.8977 22.6967 86.5971C22.2692 86.4227 21.6504 86.4359 21.2173 86.6046C18.6092 87.6227 16.0311 88.7215 13.4361 89.779C11.5629 90.5421 10.1248 89.9496 9.35418 88.0859C6.61856 81.4709 3.89606 74.8484 1.16231 68.2334C0.999185 67.8377 0.789185 67.4609 0.601685 67.0765C0.601685 66.5777 0.601685 66.079 0.601685 65.5802C1.08168 64.4065 2.00043 63.7896 3.15543 63.3246C8.20856 61.2921 13.2411 59.2109 18.2679 57.1146C21.7836 55.6484 25.3798 55.3577 29.0604 56.3027C29.5817 56.4359 29.8536 56.3102 30.1761 55.9484C32.4504 53.3871 35.1767 51.4184 38.3773 50.2315C40.7211 49.3634 43.1698 48.7784 45.8511 47.9852C45.6673 46.3709 45.7142 44.4546 45.1929 42.7071C44.1467 39.1896 41.5461 37.0127 38.2086 35.659C36.6936 35.044 35.9792 33.5477 36.4967 32.1002C37.0311 30.6096 38.6061 29.8109 40.1342 30.4296C41.4523 30.964 42.6973 31.6877 43.9479 32.3777C44.5273 32.6984 45.0411 33.139 45.6223 33.5534V24.5421C43.8711 24.3021 42.1892 24.1671 40.5467 23.8315C34.1792 22.5284 29.8292 18.9209 27.9804 12.5665C27.1648 9.76148 26.8911 6.88523 26.9961 3.96773C27.0879 1.49086 27.5192 0.875858 29.7973 0.0827332C31.2936 0.0827332 32.7898 0.0827332 34.2879 0.0827332C34.6198 0.144608 34.9498 0.225233 35.2854 0.266483C40.6123 0.933983 45.2904 2.76586 48.3598 7.50961C48.3861 7.54898 48.4629 7.55461 48.5173 7.57523C48.5698 7.54711 48.6411 7.53023 48.6692 7.48523C51.0842 3.66398 54.7254 1.70461 58.9911 0.720233C60.1629 0.452108 61.3592 0.292733 62.5442 0.0827332C64.1042 0.0827332 65.6623 0.0827332 67.2223 0.0827332H67.2242ZM13.5842 83.6365C13.9386 83.4996 14.2254 83.3946 14.5067 83.2784C16.4361 82.4871 18.3842 81.7371 20.2854 80.884C21.4592 80.3571 22.5279 80.4059 23.6961 80.899C29.7186 83.4377 35.7542 85.9465 41.7973 88.4365C48.7723 91.3109 55.5467 90.8533 62.0754 87.0827C67.3348 84.0452 72.5679 80.9609 77.8123 77.8971C81.5511 75.7127 85.2917 73.534 89.0248 71.3402C90.4423 70.5077 91.0367 69.259 90.7086 67.9221C90.2061 65.869 88.1961 65.0252 86.1261 66.0209C77.5986 70.1234 69.0711 74.2315 60.5529 78.3546C60.2136 78.5196 59.8798 78.8102 59.6773 79.129C57.3111 82.8602 53.1917 84.2234 49.1042 82.5734C47.0267 81.7334 44.9661 80.8521 42.8979 79.9915C40.1679 78.8571 37.4323 77.7359 34.7079 76.5846C33.2754 75.979 32.5986 74.5596 33.0054 73.1477C33.3804 71.8465 34.7286 70.9915 36.1367 71.209C36.5604 71.2746 36.9711 71.4509 37.3723 71.6159C42.0017 73.534 46.6254 75.4671 51.2567 77.3815C52.7642 78.004 54.3654 77.3965 54.9598 76.0165C55.5579 74.6271 54.9148 73.0502 53.4598 72.3434C53.2911 72.2627 53.1167 72.1971 52.9442 72.1259C45.0429 68.8334 37.1492 65.5259 29.2386 62.2559C26.3773 61.0727 23.4786 61.0427 20.5948 62.2296C16.3348 63.9809 12.0748 65.7359 7.81668 67.4946C7.57293 67.5959 7.34418 67.7365 7.08356 67.8715C9.26606 73.1609 11.4129 78.364 13.5879 83.6346L13.5842 83.6365ZM35.3792 58.7421C40.1998 60.7465 44.9323 62.7227 49.6817 64.6596C49.9892 64.7852 50.4729 64.699 50.7936 64.5452C54.2961 62.8577 57.7817 61.1402 61.2711 59.4265C61.5073 59.3102 61.7304 59.164 61.9779 59.0196C54.9673 51.919 41.7711 52.3484 35.3792 58.7421ZM32.6848 5.73961C32.6717 14.3234 36.8811 18.7427 45.6073 18.7015C45.5792 9.66398 41.1579 6.00211 32.6848 5.73961ZM51.3992 18.8384C55.2129 18.5459 58.9179 18.0959 61.5486 15.0059C63.7948 12.3677 64.2467 9.11086 64.4061 5.77148C55.9104 5.87648 51.4198 9.74273 51.4011 18.8384H51.3992ZM57.1854 67.684C58.3404 69.1746 59.4317 70.5808 60.6167 72.1108C60.4292 72.1108 60.4967 72.1315 60.5454 72.1071C64.2992 70.3034 68.0604 68.5109 71.8011 66.6752C72.7086 66.229 73.2917 65.4471 73.4004 64.4046C73.6292 62.2034 71.4317 60.7315 69.3373 61.7327C65.8311 63.409 62.3548 65.149 58.8673 66.8609C58.2598 67.159 57.6523 67.4552 57.1854 67.684Z" fill="#00B373"/>
</g>
<defs>
<clipPath id="clip0_274_284">
<rect width="96" height="96" fill="white" transform="translate(0.5)"/>
</clipPath>
</defs>
</svg>
