<svg width="97" height="96" viewBox="0 0 97 96" fill="none" xmlns="http://www.w3.org/2000/svg">
<g clip-path="url(#clip0_274_283)">
<path d="M35.5163 18.4936L26.4124 26.0195L35.5163 30.3894L47.5335 34.8807L58.3368 31.6033L64.0419 24.5629L65.6199 16.9156L61.6142 15.0948L46.9265 14.2451L35.5163 18.4936Z" fill="#C2E189"/>
<path d="M74.8176 58.9584L86.1545 52.1203V63.8171L78.7764 78.573L66.5398 89.37L63.1208 85.0512L59.7017 74.7941L63.1208 65.2567L74.8176 58.9584Z" fill="#C2E189"/>
<path d="M19.2128 58.0587L10.5752 52.4802L11.8349 64.8968L16.6935 76.5936L27.3106 87.2106H33.9688L37.7477 78.9329L36.3081 69.5755L30.0099 62.7374L19.2128 58.0587Z" fill="#C2E189"/>
<path d="M96.4888 72.4219C96.11 74.2087 95.8644 76.0387 95.3281 77.7769C93.3069 84.3262 89.5063 89.5425 83.3769 92.8012C77.6919 95.8237 71.9413 95.5519 66.2713 92.655C65.6881 92.3569 65.2513 92.2969 64.6438 92.5837C62.4481 93.6206 60.2244 94.5975 58.0044 95.58C56.2644 96.3506 54.6407 95.835 53.9638 94.3219C53.2794 92.7919 53.9731 91.2469 55.7019 90.465C57.3388 89.7244 58.9794 88.9875 60.7081 88.2075C60.4269 87.8137 60.1963 87.4912 59.9675 87.1706C52.9456 77.3756 57.0257 63.6525 68.2719 59.3287C71.885 57.9394 75.455 56.4937 78.5788 54.1425C80.6975 52.5469 82.475 50.6531 83.7181 48.2906C84.2844 47.2162 85.0963 46.5225 86.3806 46.5919C87.6613 46.6612 88.4956 47.3287 89.015 48.4987C90.86 52.6519 92.8456 56.7469 94.5519 60.9544C95.3956 63.0337 95.7481 65.3137 96.3219 67.5037C96.3763 67.71 96.4325 67.9144 96.4888 68.1206V72.4256V72.4219ZM66.0857 85.6312C75.7213 81.0244 84.2206 67.26 83.4163 57.555C83.2944 57.6131 83.1725 57.645 83.0863 57.7162C79.5163 60.6862 75.38 62.595 71.0938 64.275C69.4681 64.9125 67.8238 65.7675 66.5132 66.8981C60.1307 72.3956 61.2631 81.2381 66.0875 85.6312H66.0857ZM71.7425 88.845C74.6563 89.5575 77.3769 89.4881 79.955 88.2337C89.3244 83.6775 93.4756 72.0244 89.1556 62.5144C89.0769 62.3419 88.9531 62.19 88.7694 61.9031C86.8156 73.3012 81.185 82.2019 71.7425 88.845Z" fill="#00B373"/>
<path d="M36.4625 88.2056C38.3169 89.04 40.0869 89.805 41.8269 90.6319C43.0044 91.1906 43.5781 92.325 43.4094 93.5419C43.2369 94.785 42.3781 95.7656 41.1125 95.8987C40.4712 95.9662 39.7437 95.8012 39.1381 95.5444C36.8731 94.5862 34.6512 93.5269 32.3937 92.5537C32.0525 92.4075 31.5256 92.3681 31.2106 92.5294C23.6206 96.3919 16.2669 95.5594 9.73811 90.0656C1.62498 83.2406 -1.55877 71.205 2.35248 61.5356C4.17123 57.0375 6.28998 52.6575 8.28686 48.2306C8.72936 47.2481 9.48498 46.6444 10.595 46.5919C11.705 46.5375 12.6931 46.9031 13.2087 47.9006C15.6856 52.6875 19.8706 55.4456 24.5787 57.585C25.9662 58.215 27.4062 58.7269 28.8237 59.2894C40.4075 63.8812 44.3037 77.6625 36.8394 87.6375C36.7306 87.7837 36.6369 87.9412 36.4606 88.2075L36.4625 88.2056ZM31.1037 85.7606C31.3944 85.4231 31.595 85.185 31.8012 84.9525C37.8631 78.1387 35.1219 67.5825 26.4425 64.3781C21.98 62.73 17.705 60.7537 14.0225 57.6694C13.9456 57.6056 13.82 57.6 13.5912 57.5269C14.5456 70.0106 20.3337 79.335 31.1037 85.7625V85.7606ZM25.4487 88.8544C15.9481 82.1887 10.3344 73.26 8.38248 61.8862C6.63498 64.9444 5.90373 68.6644 6.49998 72.9187C7.38123 79.2019 10.3962 84.21 15.8994 87.5644C18.8187 89.3437 21.9575 89.6644 25.4487 88.8525V88.8544Z" fill="#00B373"/>
<path d="M50.2663 0.1875C51.5169 0.410625 52.7825 0.575625 54.0182 0.868125C60.8282 2.48063 65.1482 6.7875 67.3232 13.3425C67.5538 14.0363 67.88 14.4056 68.5663 14.6512C70.82 15.4594 73.0494 16.3425 75.2844 17.205C77.0488 17.8856 77.8288 19.4156 77.2138 20.9644C76.61 22.4869 75.0388 23.0925 73.3194 22.4513C71.6057 21.8119 69.8975 21.1594 68.2232 20.5275C67.85 21.9975 67.5913 23.4094 67.1375 24.7537C63.7063 34.9012 52.3288 39.9206 42.5075 35.6194C39.2544 34.1944 36.0125 32.7656 32.4875 32.1225C29.5025 31.5788 26.5438 31.5525 23.6132 32.4469C22.4563 32.7994 21.3782 32.715 20.5307 31.7494C19.6907 30.7931 19.5782 29.7281 20.0413 28.5319C21.6013 24.4987 23.0225 20.4075 24.6763 16.4137C28.6025 6.93938 35.8007 1.70437 45.9032 0.350625C46.1132 0.3225 46.3157 0.24375 46.5238 0.1875C47.7707 0.1875 49.0194 0.1875 50.2663 0.1875ZM30.3013 25.9331C30.3407 26.0044 30.38 26.0756 30.4194 26.1488C31.2388 26.2613 32.06 26.3587 32.8775 26.4919C37.0025 27.1594 40.8332 28.6987 44.6057 30.4219C46.9644 31.5 49.4619 31.7925 52.0044 31.3331C57.9219 30.2606 61.9157 25.7587 62.5513 19.6181C62.645 18.7106 62.3675 18.3675 61.5088 18.165C51.9613 15.9075 43.025 17.325 34.7525 22.6181C33.1982 23.6119 31.7825 24.8231 30.3013 25.9331ZM29.5757 19.335C39.0763 12.5625 49.3738 10.2713 60.6913 12.2025C59.5494 9.95063 57.0763 7.70062 54.7644 6.93375C47.5213 4.53375 41.0075 6.01313 35.2157 10.8356C32.5813 13.0294 30.7813 15.8381 29.5757 19.3331V19.335Z" fill="#00B373"/>
</g>
<defs>
<clipPath id="clip0_274_283">
<rect width="96" height="96" fill="white" transform="translate(0.5)"/>
</clipPath>
</defs>
</svg>
