<svg width="97" height="96" viewBox="0 0 97 96" fill="none" xmlns="http://www.w3.org/2000/svg">
<g clip-path="url(#clip0_274_282)">
<path d="M37.2755 33.0541H26.8921L22.1559 48.1737L25.8903 61.4716H37.2755L40.4633 55.1869L46.1104 53.3653L48.1142 46.0788L40.4633 40.705L37.2755 33.0541Z" fill="#C2E189"/>
<path d="M54.3988 33.0541L61.2299 25.3122L71.9775 36.5152L56.9491 39.4298L54.3988 33.0541Z" fill="#C2E189"/>
<path d="M62.3229 51.6348L73.617 52.6367L69.9737 62.8378L60.7745 71.1262L48.6606 74.0408L49.2982 64.204L56.2204 61.4716L58.4064 55.1869L62.3229 51.6348Z" fill="#C2E189"/>
<path d="M45.5994 95.8725C43.8162 95.625 42.0237 95.4244 40.25 95.1187C34.6081 94.1475 29.3244 92.1825 24.3837 89.2969C23.015 88.4962 22.5069 87.0525 23.0712 85.6987C23.6056 84.42 25.0006 83.7187 26.3825 84.1069C26.8812 84.2475 27.3369 84.5494 27.8056 84.7931C43.0137 92.7262 57.8712 92.1506 72.3706 82.9481C72.71 82.7325 73.0231 82.4794 73.5575 82.0912C72.6369 81.9956 71.9281 81.9187 71.2175 81.8475C70.6287 81.7875 70.0325 81.7725 69.4512 81.6675C68.0187 81.4125 67.025 80.1225 67.1375 78.7181C67.2537 77.2669 68.4819 76.05 69.9612 76.1531C73.5969 76.41 77.2306 76.7231 80.855 77.1037C82.415 77.2687 83.3656 78.4781 83.2494 80.0419C82.9906 83.5537 82.6925 87.0619 82.34 90.5644C82.1694 92.2631 80.8062 93.3694 79.3006 93.1969C77.6806 93.0112 76.6662 91.6969 76.7975 89.9512C76.8781 88.8712 76.9662 87.7912 77.0619 86.5725C76.7131 86.7862 76.4769 86.9156 76.2575 87.0694C69.0087 92.1731 60.9744 95.0812 52.1244 95.7225C51.8806 95.7394 51.6406 95.8181 51.4006 95.8687H45.5994V95.8725Z" fill="#00B373"/>
<path d="M0.6875 44.9719C0.93875 43.155 1.13375 41.3306 1.44875 39.525C2.42937 33.9188 4.385 28.6613 7.26312 23.7525C8.13312 22.2694 9.81875 21.7969 11.1969 22.6125C12.5356 23.4038 12.9688 25.0706 12.1231 26.5294C9.37813 31.2731 7.52 36.3338 6.76813 41.7638C5.21563 52.9669 7.6475 63.2325 14.1537 72.51C14.2063 72.585 14.2681 72.6544 14.4688 72.9075C14.6056 71.5031 14.6206 70.2713 14.8775 69.0919C15.0312 68.3831 15.4306 67.6144 15.9537 67.1231C16.7881 66.3413 17.87 66.2794 18.9125 66.8363C19.9831 67.4081 20.4912 68.3381 20.3994 69.5306C20.1838 72.3581 19.925 75.1819 19.6794 78.0075C19.6119 78.7838 19.5763 79.5656 19.4375 80.3288C19.1731 81.7781 18.0575 82.7269 16.5912 82.62C13.0175 82.3594 9.4475 82.0538 5.88312 81.6919C4.26312 81.5269 3.17937 80.1281 3.3575 78.6563C3.54875 77.0738 4.85188 76.0425 6.5225 76.1606C7.63063 76.2394 8.73875 76.3331 9.995 76.4325C9.74938 76.0481 9.5975 75.7894 9.425 75.5438C4.385 68.3719 1.51812 60.4181 0.843125 51.6731C0.820625 51.3713 0.741875 51.0731 0.6875 50.7713C0.6875 48.8381 0.6875 46.9031 0.6875 44.97V44.9719Z" fill="#00B373"/>
<path d="M77.5981 47.9925C77.5813 63.9938 64.5088 77.0194 48.5169 76.9706C32.5494 76.9219 19.5706 63.8944 19.5894 47.9363C19.6081 31.935 32.675 18.915 48.6688 18.9619C64.6381 19.0069 77.6169 32.0325 77.5981 47.9944V47.9925ZM33.5075 30.1894C34.31 30.1894 34.9306 30.18 35.5494 30.1894C38.7106 30.2494 41.3113 32.3944 41.8888 35.5013C42.0519 36.3806 42.0106 37.2994 42.0387 38.1994C42.0706 39.2438 42.3013 39.4931 43.3681 39.5531C47.8869 39.8138 51.3875 43.47 51.3969 47.9419C51.4063 52.4156 47.9075 56.1075 43.4113 56.3719C42.2806 56.4375 42.1194 56.6025 42.0294 57.7781C41.8044 60.7256 39.7025 63.195 36.7906 63.69C35.4219 63.9225 33.9969 63.8231 32.5981 63.8681C32.2888 63.8775 31.9775 63.8681 31.4544 63.8681C35.5156 68.0588 40.1844 70.4288 45.7869 71.1863C45.7869 69.6769 45.7775 68.2481 45.7869 66.8175C45.8169 63.0863 48.4887 60.3038 52.1956 60.1294C53.9994 60.045 55.0662 58.9763 55.145 57.1781C55.3531 52.38 58.94 48.9281 63.7606 48.9019C66.1625 48.8888 68.5644 48.9 70.9644 48.9C71.2906 48.9 71.6169 48.9 71.9638 48.9C72.0631 45.8231 71.6394 42.9919 70.6269 40.1831C68.0075 40.9931 65.4875 41.7919 62.9563 42.5531C58.5931 43.8656 54.2337 42.0225 52.2969 38.07C50.3769 34.1513 51.5675 29.6063 55.2106 26.9513C55.6231 26.6494 56.03 26.34 56.4969 25.9931C48.7569 23.0681 39.5187 24.8381 33.5075 30.1894ZM31.7 58.2581C32.885 58.2581 34.07 58.2525 35.2531 58.26C35.9563 58.2638 36.4137 57.9694 36.4231 57.2325C36.4625 53.6681 39.4869 50.7056 43.16 50.7431C44.3056 50.7544 45.1456 50.055 45.5788 48.9731C46.3194 47.1225 45.0012 45.2588 42.8975 45.1556C39.5431 44.9906 37.0213 42.8063 36.5131 39.5475C36.3838 38.7244 36.4306 37.8694 36.4363 37.0294C36.4419 36.1613 36.035 35.7881 35.1781 35.7956C33.1831 35.8125 31.1881 35.7806 29.1931 35.8238C28.9025 35.8294 28.49 36.075 28.3475 36.3281C24.4794 43.275 24.1681 50.4038 27.35 57.6788C27.4681 57.9488 27.9275 58.2131 28.2406 58.2319C29.39 58.2975 30.5469 58.2581 31.7 58.2581ZM70.9794 54.5194C68.405 54.5194 65.9113 54.4819 63.4194 54.5325C61.9344 54.5625 60.8694 55.7475 60.7494 57.2719C60.6912 58.0144 60.6313 58.77 60.4438 59.4844C59.4988 63.0675 56.4463 65.5181 52.7038 65.7225C52.0044 65.76 51.4288 65.9138 51.4119 66.7294C51.3819 68.19 51.4044 69.6506 51.4044 71.1169C60.4587 70.29 68.6788 63.1875 70.9813 54.5175L70.9794 54.5194ZM62.1369 28.9219C61.8819 29.0944 61.6475 29.2444 61.4225 29.4075C60.335 30.1894 59.2213 30.9338 58.175 31.7681C57.0313 32.6775 56.7144 34.1775 57.2881 35.4825C57.8581 36.7838 59.2138 37.6631 60.62 37.3125C63.11 36.6919 65.5513 35.8763 68.1181 35.1113C66.4306 32.6063 64.4938 30.5831 62.1369 28.9238V28.9219Z" fill="#00B373"/>
<path d="M82.7075 23.0156C82.5781 24.4069 82.5031 25.5788 82.355 26.7413C82.1319 28.4925 80.8138 29.6044 79.2538 29.4169C77.6619 29.2256 76.6569 27.8906 76.8031 26.1263C77.075 22.8338 77.3469 19.5413 77.6413 16.2506C77.8288 14.1563 78.9669 13.1644 81.0556 13.3294C84.4738 13.5994 87.8919 13.8713 91.3006 14.2369C93.2769 14.4488 94.3438 16.3388 93.605 18.0788C93.1194 19.2188 92.0769 19.8544 90.7569 19.7738C89.6169 19.7044 88.4788 19.5975 87.1981 19.4963C87.4025 19.8263 87.5188 20.0344 87.6556 20.2294C94.4844 29.9588 97.3344 40.7644 96.2694 52.5769C95.6431 59.5294 93.5075 66.0338 89.9825 72.0694C89.0713 73.6313 87.425 74.1488 86.0131 73.3313C84.6088 72.5194 84.2244 70.8338 85.1356 69.2531C89.1744 62.25 91.115 54.7069 90.86 46.6331C90.5938 38.1919 88.0194 30.4931 83.1463 23.5781C83.0581 23.4525 82.9588 23.3344 82.7094 23.0138L82.7075 23.0156Z" fill="#00B373"/>
<path d="M20.135 9.18188C22.6869 7.71938 25.0737 6.10687 27.6556 4.90875C42.9481 -2.1825 57.9969 -1.57125 72.7344 6.60187C74.2606 7.4475 74.7594 9.1125 73.9887 10.5037C73.2031 11.9212 71.4856 12.3469 69.9275 11.4469C62.93 7.39875 55.3887 5.45437 47.3169 5.69812C38.9412 5.94937 31.2931 8.48063 24.41 13.2806C24.2131 13.4175 24.0312 13.575 23.6975 13.8356C24.6462 13.9313 25.4319 14.0119 26.2175 14.0888C26.6506 14.1319 27.0894 14.1544 27.5187 14.22C29.135 14.4675 30.2056 15.765 30.0462 17.2669C29.885 18.7987 28.595 19.8806 26.975 19.7681C24.9537 19.6294 22.9362 19.4344 20.9187 19.2638C19.6137 19.1531 18.3106 19.0406 17.0056 18.93C14.7912 18.7444 13.7881 17.6362 13.9606 15.4406C14.2306 12.0225 14.5025 8.60437 14.8756 5.1975C15.0894 3.24187 17.03 2.19937 18.7587 2.97563C19.8837 3.48 20.4856 4.51875 20.3975 5.8575C20.3244 6.97312 20.2212 8.08875 20.135 9.17813V9.18188Z" fill="#00B373"/>
</g>
<defs>
<clipPath id="clip0_274_282">
<rect width="96" height="96" fill="white" transform="translate(0.5)"/>
</clipPath>
</defs>
</svg>
