<svg width="198" height="80" viewBox="0 0 198 80" fill="none" xmlns="http://www.w3.org/2000/svg">
<g clip-path="url(#clip0_370_419)">
<path d="M90.4891 37.5147H94.0091C95.5845 37.5147 96.9422 37.2557 98.0823 36.7386C99.2216 36.2214 100.102 35.4914 100.722 34.5478C101.342 33.605 101.653 32.4737 101.653 31.1553C101.653 29.837 101.342 28.7268 100.722 27.7754C100.102 26.824 99.2224 26.094 98.0823 25.5846C96.9422 25.0761 95.5845 24.821 94.0091 24.821H86.3907V42.3468H90.4891V37.5147ZM96.5988 28.9145C97.2353 29.4403 97.5543 30.1875 97.5543 31.1553C97.5543 32.1232 97.2361 32.8743 96.5988 33.4087C95.9616 33.943 95.0227 34.2098 93.7828 34.2098H90.4891V28.1259H93.7828C95.0235 28.1259 95.9616 28.3888 96.5988 28.9145Z" fill="#E6EADC"/>
<path d="M118.172 39.092H108.592V35.0361H116.764V31.8564H108.592V28.0758H117.845V24.821H104.544V42.3468H118.172V39.092Z" fill="#E6EADC"/>
<path d="M129.913 42.6473C131.171 42.6473 132.428 42.4595 133.685 42.0839C134.942 41.7084 136.057 41.1536 137.029 40.419V33.3085H133.308V38.4583C133.038 38.5999 132.766 38.7204 132.491 38.8166C131.728 39.0842 130.944 39.2172 130.14 39.2172C129.335 39.2172 128.534 39.0756 127.839 38.7916C127.143 38.5083 126.54 38.1156 126.029 37.6148C125.517 37.1141 125.124 36.5179 124.847 35.8247C124.57 35.1323 124.432 34.3851 124.432 33.5839C124.432 32.7827 124.57 31.9901 124.847 31.3055C125.124 30.6209 125.517 30.0286 126.029 29.5279C126.54 29.0272 127.148 28.6391 127.852 28.3637C128.556 28.0883 129.326 27.9506 130.165 27.9506C131.07 27.9506 131.9 28.1133 132.654 28.4388C133.408 28.7643 134.112 29.2689 134.766 29.9535L137.356 27.55C136.501 26.5657 135.449 25.8138 134.2 25.2967C132.951 24.7795 131.548 24.5205 129.989 24.5205C128.581 24.5205 127.29 24.7419 126.117 25.184C124.943 25.6268 123.921 26.2567 123.049 27.0743C122.177 27.8927 121.503 28.8519 121.025 29.9535C120.548 31.0552 120.309 32.2655 120.309 33.5839C120.309 34.9022 120.548 36.1126 121.025 37.2142C121.503 38.3159 122.169 39.2759 123.024 40.0935C123.879 40.9111 124.893 41.5417 126.067 41.9838C127.24 42.4258 128.522 42.6473 129.913 42.6473V42.6473Z" fill="#E6EADC"/>
<path d="M146.307 24.821L138.487 42.3468H142.661L144.229 38.5913H152.382L153.95 42.3468H158.224L150.33 24.821H146.307ZM145.515 35.5118L148.306 28.8308L151.096 35.5118H145.515Z" fill="#E6EADC"/>
<path d="M173.109 41.2577C174.567 40.5317 175.708 39.5138 176.529 38.2032C177.35 36.8927 177.761 35.3529 177.761 33.5839C177.761 31.8149 177.35 30.2751 176.529 28.9646C175.707 27.6541 174.567 26.6362 173.109 25.9101C171.651 25.184 169.966 24.821 168.055 24.821H160.06V42.3468H168.055C169.966 42.3468 171.651 41.9838 173.109 41.2577ZM164.158 39.042V28.1259H167.854C169.027 28.1259 170.046 28.3473 170.909 28.7894C171.773 29.2322 172.443 29.862 172.921 30.6796C173.398 31.498 173.637 32.4659 173.637 33.5839C173.637 34.702 173.398 35.6495 172.921 36.4757C172.443 37.3019 171.772 37.9364 170.909 38.3785C170.046 38.8213 169.027 39.042 167.854 39.042H164.158Z" fill="#E6EADC"/>
<path d="M184.006 38.5913H192.158L193.726 42.3468H198.001L190.106 24.821H186.083L178.263 42.3468H182.437L184.006 38.5913V38.5913ZM188.082 28.8308L190.872 35.5118H185.292L188.082 28.8308V28.8308Z" fill="#E6EADC"/>
<path d="M98.2826 62.8388L89.5329 52.2059H86.1637V69.7317H90.1866V59.0989L98.9364 69.7317H102.306V52.2059H98.2826V62.8388Z" fill="#E6EADC"/>
<path d="M110.527 62.421H118.699V59.2413H110.527V55.4607H119.78V52.2059H106.479V69.7317H120.107V66.4769H110.527V62.421Z" fill="#E6EADC"/>
<path d="M135.117 61.8952C135.117 63.5476 134.773 64.7455 134.086 65.488C133.399 66.2313 132.435 66.6021 131.195 66.6021C129.955 66.6021 129.015 66.2305 128.329 65.488C127.641 64.7455 127.298 63.5476 127.298 61.8952V52.2059H123.199V61.9953C123.199 64.5827 123.903 66.5693 125.311 67.9541C126.719 69.3397 128.672 70.0322 131.17 70.0322C133.668 70.0322 135.595 69.3397 137.003 67.9541C138.411 66.5685 139.115 64.5827 139.115 61.9953V52.2059H135.117V61.8952V61.8952Z" fill="#E6EADC"/>
<path d="M140.874 55.5108H146.506V69.7317H150.579V55.5108H156.212V52.2059H140.874V55.5108Z" fill="#E6EADC"/>
<path d="M170.09 64.0859C171.23 63.5938 172.111 62.8763 172.73 61.9327C173.35 60.9899 173.661 59.8594 173.661 58.5402C173.661 57.2211 173.35 56.1116 172.73 55.1602C172.111 54.2088 171.23 53.4789 170.09 52.9695C168.95 52.461 167.593 52.2059 166.017 52.2059H158.399V69.7317H162.497V64.8245H166.017C166.078 64.8245 166.137 64.8237 166.197 64.8229L169.614 69.7317H173.988L170.067 64.0961C170.075 64.0929 170.083 64.0898 170.091 64.0859H170.09ZM168.607 56.2994C169.244 56.8252 169.562 57.5724 169.562 58.5402C169.562 59.5081 169.244 60.2592 168.607 60.7936C167.97 61.3279 167.032 61.5947 165.791 61.5947H162.497V55.5108H165.791C167.032 55.5108 167.97 55.7736 168.607 56.2994Z" fill="#E6EADC"/>
<path d="M182.385 52.2059L174.566 69.7317H178.74L180.308 65.9762H188.461L190.029 69.7317H194.303L186.408 52.2059H182.385V52.2059ZM181.594 62.8967L184.384 56.2157L187.174 62.8967H181.594V62.8967Z" fill="#E6EADC"/>
<path d="M32.8461 79.9999C32.223 80.0069 31.9818 79.1956 32.5098 78.8646C40.3238 73.9691 44.6296 65.2195 43.4156 56.6405C42.0445 46.948 34.2337 41.7482 31.6047 40.253C30.3813 39.5574 29.2114 38.7711 28.1192 37.8847C22.6962 33.4844 19.8629 27.8777 20.9582 23.2921C21.564 20.7555 23.3185 18.7518 23.4725 18.5789C26.6161 15.0573 31.0979 14.3617 33.1502 14.3437C42.4193 14.2655 58.9069 20.1773 64.1335 37.0397C68.5359 51.2419 63.8561 66.2523 50.6765 74.7437C43.6576 79.266 37.067 79.9506 32.8461 79.9999ZM13.7138 59.6402C9.093 58.681 6.83012 57.6498 6.83012 57.6498C6.83012 57.6498 8.85964 56.9605 12.8079 56.8674C8.38428 48.6787 8.78421 40.8648 9.11893 37.8635C9.12836 37.7783 9.25329 37.7775 9.2635 37.8635C9.50315 39.8422 10.0461 42.9969 11.4054 46.6625C13.0546 44.2534 14.2591 42.6847 14.2591 42.6847C14.2591 42.6847 14.1114 44.9568 12.7034 48.9439C12.5989 49.2405 12.6162 49.566 12.7513 49.85C13.9197 52.302 15.4676 54.8824 17.523 57.4252C18.9742 59.2208 20.4954 60.7692 22.0134 62.104C23.6854 56.189 25.0651 52.4929 25.0651 52.4929C25.0651 52.4929 25.7738 56.4198 25.2262 63.9364C25.1956 64.355 25.392 64.7587 25.7393 64.9957C29.1799 67.3453 32.2843 68.659 34.1331 69.3459C36.1336 66.3822 36.9476 62.7761 36.7842 59.612C36.484 53.8027 32.8375 48.5371 27.3524 45.7572C26.8424 45.499 18.4077 41.4845 15.9633 33.9789C14.0635 28.1437 14.7085 23.1066 16.1645 20.3181C16.4568 19.7587 15.8148 19.2197 15.279 19.5553C9.97065 22.8821 1.12108 31.3148 0.0925707 44.6376C-0.921009 57.7726 6.45219 71.7002 17.5081 74.5606C18.5633 74.8337 24.8836 76.6598 30.3758 73.0733C30.7357 72.8386 31.079 72.5882 31.4067 72.3253C29.1014 71.5789 21.0902 68.7028 15.1375 60.5572C14.7934 60.0862 14.2866 59.7591 13.7138 59.6402V59.6402ZM15.3316 11.0521C16.929 14.6301 20.6235 16.4687 23.584 15.159C26.5446 13.8484 27.6501 9.88557 26.0528 6.30764C24.4554 2.72971 20.761 0.89106 17.8004 2.2008C14.8398 3.51133 13.7343 7.4742 15.3316 11.0521V11.0521ZM29.033 6.22862C29.5398 9.22444 31.959 11.3158 34.438 10.9004C36.9162 10.4849 38.5151 7.71988 38.0083 4.72406C37.5015 1.72823 35.0823 -0.363133 32.6033 0.0523233C30.1252 0.46778 28.5262 3.23279 29.033 6.22862ZM40.6208 6.45082C40.125 9.08596 41.4906 11.5529 43.671 11.9597C45.8514 12.3666 48.0215 10.56 48.5173 7.92409C49.0131 5.28895 47.6475 2.82203 45.4671 2.41518C43.2868 2.00833 41.1166 3.8149 40.6208 6.45082ZM50.4502 10.517C49.5513 12.6952 50.2828 15.0588 52.0853 15.7966C53.8877 16.5344 56.0775 15.3663 56.9764 13.1881C57.8752 11.0099 57.1437 8.64625 55.3413 7.90844C53.5389 7.17063 51.3491 8.33876 50.4502 10.517V10.517ZM58.2555 16.6651C57.0495 18.4396 57.2616 20.6804 58.7293 21.6701C60.1978 22.6599 62.3656 22.0238 63.5717 20.2493C64.7778 18.4748 64.5657 16.234 63.0979 15.2443C61.6302 14.2545 59.4616 14.8906 58.2555 16.6651Z" fill="#84BD00"/>
</g>
<defs>
<clipPath id="clip0_370_419">
<rect width="198" height="80" fill="white"/>
</clipPath>
</defs>
</svg>
