<svg width="232" height="56" viewBox="0 0 232 56" fill="none" xmlns="http://www.w3.org/2000/svg">
<g clip-path="url(#clip0_184_187)">
<path d="M157.083 29.7403L150.245 21.4268H147.612V35.1305H150.756V26.8164L157.594 35.1305H160.227V21.4268H157.083V29.7403Z" fill="#E6EADC"/>
<path d="M166.652 29.4141H173.038V26.9278H166.652V23.9717H173.883V21.4268H163.488V35.1305H174.138V32.5855H166.652V29.4141Z" fill="#E6EADC"/>
<path d="M185.869 29.003C185.869 30.295 185.6 31.2314 185.063 31.8122C184.526 32.393 183.773 32.6834 182.803 32.6834C181.834 32.6834 181.1 32.393 180.563 31.8122C180.026 31.2314 179.758 30.295 179.758 29.003V21.4268H176.555V29.0813C176.555 31.1042 177.105 32.6573 178.206 33.7405C179.306 34.8238 180.832 35.3654 182.784 35.3654C184.735 35.3654 186.242 34.8238 187.342 33.7405C188.443 32.6573 188.993 31.1042 188.993 29.0813V21.4268H185.869V29.003Z" fill="#E6EADC"/>
<path d="M190.368 24.0109H194.769V35.1305H197.953V24.0109H202.354V21.4268H190.368V24.0109Z" fill="#E6EADC"/>
<path d="M213.2 30.7159C214.091 30.3309 214.778 29.7697 215.263 29.0323C215.748 28.2949 215.99 27.4107 215.99 26.3797C215.99 25.3486 215.748 24.4807 215.263 23.7368C214.778 22.9929 214.091 22.4219 213.2 22.0238C212.309 21.6258 211.248 21.4268 210.017 21.4268H204.063V35.1305H207.266V31.2934H210.017C210.064 31.2934 210.11 31.2925 210.157 31.292L212.827 35.1305H216.245L213.181 30.7238C213.187 30.7211 213.193 30.7187 213.2 30.7159ZM212.041 24.6276C212.538 25.0387 212.787 25.6227 212.787 26.3797C212.787 27.1366 212.538 27.7239 212.041 28.1416C211.543 28.5592 210.809 28.768 209.84 28.768H207.266V24.0109H209.84C210.809 24.0109 211.543 24.2164 212.041 24.6276Z" fill="#E6EADC"/>
<path d="M228.781 35.1305H232.121L225.952 21.4268H222.808L216.697 35.1305H219.959L221.184 32.194H227.555L228.781 35.1305ZM222.189 29.786L224.37 24.5618L226.55 29.786H222.19H222.189Z" fill="#E6EADC"/>
<path d="M9.1367 22.0238C8.24595 21.6258 7.18492 21.4268 5.95359 21.4268H0V35.1305H3.20276V31.3522H5.95359C7.18492 31.3522 8.24595 31.1499 9.1367 30.7453C10.0274 30.3407 10.7152 29.7697 11.1998 29.0323C11.6845 28.2949 11.9268 27.4107 11.9268 26.3797C11.9268 25.3486 11.6845 24.4807 11.1998 23.7368C10.7152 22.9929 10.0274 22.4219 9.1367 22.0238ZM7.97742 28.1416C7.47965 28.5592 6.74609 28.768 5.77675 28.768H3.20276V24.0109H5.77675C6.74609 24.0109 7.47965 24.2164 7.97742 24.6276C8.47519 25.0387 8.72407 25.6227 8.72407 26.3797C8.72407 27.1366 8.47519 27.7239 7.97742 28.1416Z" fill="#E6EADC"/>
<path d="M17.3499 29.4141H23.7358V26.9278H17.3499V23.9717H24.5807V21.4268H14.1864V35.1305H24.8361V32.5855H17.3499V29.4141Z" fill="#E6EADC"/>
<path d="M30.9759 25.1072C31.3754 24.7156 31.8503 24.4122 32.4004 24.1969C32.9506 23.9815 33.5532 23.8738 34.2081 23.8738C34.9155 23.8738 35.5639 24.0011 36.1534 24.2556C36.7428 24.5101 37.293 24.9049 37.8039 25.44L39.8277 23.5606C39.1596 22.7906 38.3377 22.2033 37.3618 21.7987C36.3859 21.3941 35.2888 21.1918 34.0706 21.1918C32.9703 21.1918 31.9616 21.3648 31.0447 21.7106C30.1277 22.0565 29.3287 22.5492 28.6475 23.1887C27.9664 23.8282 27.4391 24.5786 27.0658 25.44C26.6925 26.3014 26.5058 27.248 26.5058 28.2786C26.5058 29.3092 26.6925 30.2559 27.0658 31.1172C27.4391 31.9786 27.9598 32.7291 28.6279 33.3686C29.2959 34.0081 30.0884 34.5008 31.0054 34.8466C31.9223 35.1925 32.9244 35.3654 34.0116 35.3654C34.9941 35.3654 35.9765 35.2186 36.959 34.9249C37.9414 34.6313 38.8125 34.1973 39.5723 33.6231V28.0633H36.6642V32.0905C36.4537 32.2014 36.2408 32.2951 36.0256 32.3702C35.4296 32.579 34.8172 32.6834 34.1885 32.6834C33.5597 32.6834 32.9342 32.5724 32.3906 32.3506C31.847 32.1287 31.3754 31.822 30.9759 31.4305C30.5764 31.0389 30.2685 30.5724 30.0524 30.0307C29.8363 29.4891 29.7282 28.9051 29.7282 28.2786C29.7282 27.6522 29.8363 27.0322 30.0524 26.4971C30.2685 25.962 30.5764 25.4987 30.9759 25.1072Z" fill="#E6EADC"/>
<path d="M46.8227 21.4268L40.7119 35.1305H43.9736L45.1993 32.194H51.5702L52.7959 35.1305H56.1362L49.9665 21.4268H46.8227ZM46.2042 29.786L48.3847 24.5618L50.5653 29.786H46.2047H46.2042Z" fill="#E6EADC"/>
<path d="M67.7683 22.2783C66.6287 21.7106 65.3122 21.4268 63.8189 21.4268H57.5706V35.1305H63.8189C65.3122 35.1305 66.6287 34.8466 67.7683 34.2789C68.9079 33.7112 69.7987 32.915 70.4405 31.8905C71.0824 30.866 71.4033 29.662 71.4033 28.2786C71.4033 26.8952 71.0824 25.6912 70.4405 24.6667C69.7987 23.6422 68.9079 22.8461 67.7683 22.2783ZM67.6209 30.5397C67.2476 31.1858 66.7236 31.6817 66.049 32.0276C65.3744 32.3734 64.5786 32.5463 63.6617 32.5463H60.7733V24.0109H63.6617C64.5786 24.0109 65.3744 24.1838 66.049 24.5297C66.7236 24.8755 67.2476 25.3682 67.6209 26.0077C67.9943 26.6472 68.1809 27.4042 68.1809 28.2786C68.1809 29.153 67.9943 29.8937 67.6209 30.5397Z" fill="#E6EADC"/>
<path d="M77.9071 21.4268L71.7963 35.1305H75.058L76.2837 32.194H82.6546L83.8803 35.1305H87.2206L81.0509 21.4268H77.9071ZM77.2886 29.786L79.4692 24.5618L81.6497 29.786H77.2891H77.2886Z" fill="#E6EADC"/>
<path d="M115.498 47.6596C115.127 47.6638 114.983 47.1804 115.297 46.9833C119.95 44.0668 122.514 38.8542 121.791 33.7433C120.974 27.9691 116.324 24.8713 114.758 23.9806C114.03 23.5662 113.333 23.0978 112.683 22.5697C109.454 19.9482 107.767 16.6081 108.419 13.8762C108.78 12.3651 109.825 11.1713 109.916 11.0683C111.788 8.97035 114.457 8.55598 115.679 8.54526C121.198 8.49865 131.015 12.0206 134.127 22.0663C136.748 30.5271 133.961 39.4695 126.114 44.5282C121.935 47.2224 118.011 47.6302 115.498 47.6596ZM104.106 35.5304C101.355 34.9589 100.007 34.3446 100.007 34.3446C100.007 34.3446 101.216 33.934 103.567 33.8785C100.933 29.0002 101.171 24.3451 101.37 22.5571C101.376 22.5063 101.45 22.5058 101.456 22.5571C101.599 23.7359 101.922 25.6152 102.731 27.799C103.713 26.3638 104.431 25.4293 104.431 25.4293C104.431 25.4293 104.343 26.7829 103.504 29.1582C103.442 29.3348 103.452 29.5287 103.533 29.6979C104.229 31.1587 105.15 32.696 106.374 34.2108C107.238 35.2806 108.144 36.203 109.048 36.9982C110.043 33.4744 110.865 31.2725 110.865 31.2725C110.865 31.2725 111.287 33.6119 110.961 38.0898C110.942 38.3392 111.059 38.5797 111.266 38.7209C113.315 40.1207 115.163 40.9033 116.264 41.3125C117.455 39.5469 117.94 37.3986 117.842 35.5136C117.664 32.0527 115.492 28.9158 112.227 27.2597C111.923 27.1059 106.901 24.7142 105.445 20.2428C104.314 16.7666 104.698 13.7657 105.565 12.1045C105.739 11.7712 105.357 11.4501 105.038 11.65C101.877 13.6319 96.6076 18.6552 95.9952 26.5922C95.3917 34.4173 99.7818 42.7146 106.365 44.4187C106.993 44.5814 110.756 45.6693 114.026 43.5326C114.241 43.3928 114.445 43.2436 114.64 43.087C113.267 42.6423 108.497 40.9289 104.953 36.0762C104.748 35.7956 104.447 35.6008 104.105 35.5299L104.106 35.5304ZM105.069 6.58432C106.02 8.71585 108.22 9.81122 109.983 9.03095C111.746 8.25021 112.404 5.88935 111.453 3.75781C110.502 1.62628 108.302 0.530912 106.539 1.31118C104.776 2.09192 104.118 4.45279 105.069 6.58432ZM113.227 3.71073C113.529 5.49548 114.969 6.7414 116.445 6.49389C117.921 6.24639 118.873 4.59914 118.571 2.8144C118.269 1.02965 116.829 -0.216267 115.353 0.0312388C113.878 0.278745 112.925 1.92599 113.227 3.71073ZM120.127 3.84311C119.832 5.41298 120.645 6.88263 121.943 7.12501C123.241 7.36739 124.533 6.29113 124.828 4.7208C125.124 3.15093 124.311 1.68128 123.012 1.4389C121.714 1.19652 120.422 2.27278 120.127 3.84311ZM125.979 6.2655C125.444 7.56316 125.88 8.97128 126.953 9.41083C128.026 9.85037 129.33 9.15447 129.865 7.85681C130.4 6.55915 129.965 5.15102 128.892 4.71148C127.818 4.27193 126.515 4.96784 125.979 6.2655ZM130.627 9.92821C129.909 10.9854 130.035 12.3203 130.909 12.9099C131.783 13.4996 133.074 13.1206 133.792 12.0635C134.51 11.0063 134.384 9.67138 133.51 9.08175C132.636 8.49212 131.345 8.87107 130.627 9.92821Z" fill="#84BD00"/>
</g>
<defs>
<clipPath id="clip0_184_187">
<rect width="232" height="56" fill="white"/>
</clipPath>
</defs>
</svg>
