<svg width="495" height="520" viewBox="0 0 495 520" fill="none" xmlns="http://www.w3.org/2000/svg">
<rect width="495" height="520" fill="#E6EADC"/>
<g clip-path="url(#clip0_274_308)">
<path d="M86.6463 83.5451H77.9935L74.0466 96.1447L77.1586 107.226H86.6463L89.3028 101.989L94.0087 100.471L95.6785 94.399L89.3028 89.9208L86.6463 83.5451Z" fill="#C2E189"/>
<path d="M100.916 83.5451L106.608 77.0935L115.565 86.4293L103.041 88.8582L100.916 83.5451Z" fill="#C2E189"/>
<path d="M107.519 99.029L116.931 99.8639L113.895 108.365L106.229 115.272L96.1339 117.701L96.6652 109.503L102.434 107.226L104.255 101.989L107.519 99.029Z" fill="#C2E189"/>
<path d="M93.5828 135.894C92.0968 135.687 90.6031 135.52 89.125 135.266C84.4234 134.456 80.0203 132.819 75.9031 130.414C74.7625 129.747 74.339 128.544 74.8093 127.416C75.2546 126.35 76.4171 125.766 77.5687 126.089C77.9843 126.206 78.364 126.458 78.7546 126.661C91.4281 133.272 103.809 132.792 115.892 125.123C116.175 124.944 116.436 124.733 116.881 124.409C116.114 124.33 115.523 124.266 114.931 124.206C114.441 124.156 113.944 124.144 113.459 124.056C112.266 123.844 111.437 122.769 111.531 121.598C111.628 120.389 112.652 119.375 113.884 119.461C116.914 119.675 119.942 119.936 122.962 120.253C124.262 120.391 125.055 121.398 124.958 122.702C124.742 125.628 124.494 128.552 124.2 131.47C124.058 132.886 122.922 133.808 121.667 133.664C120.317 133.509 119.472 132.414 119.581 130.959C119.648 130.059 119.722 129.159 119.802 128.144C119.511 128.322 119.314 128.43 119.131 128.558C113.091 132.811 106.395 135.234 99.0203 135.769C98.8171 135.783 98.6171 135.848 98.4171 135.891H93.5828V135.894Z" fill="#00B373"/>
<path d="M56.1562 93.4766C56.3656 91.9625 56.5281 90.4422 56.7906 88.9375C57.6078 84.2656 59.2375 79.8844 61.6359 75.7937C62.3609 74.5578 63.7656 74.1641 64.9141 74.8437C66.0297 75.5031 66.3906 76.8922 65.6859 78.1078C63.3984 82.0609 61.85 86.2781 61.2234 90.8031C59.9297 100.139 61.9562 108.694 67.3781 116.425C67.4219 116.487 67.4734 116.545 67.6406 116.756C67.7547 115.586 67.7672 114.559 67.9813 113.577C68.1094 112.986 68.4422 112.345 68.8781 111.936C69.5734 111.284 70.475 111.233 71.3437 111.697C72.2359 112.173 72.6594 112.948 72.5828 113.942C72.4031 116.298 72.1875 118.652 71.9828 121.006C71.9266 121.653 71.8969 122.305 71.7812 122.941C71.5609 124.148 70.6312 124.939 69.4094 124.85C66.4313 124.633 63.4562 124.378 60.4859 124.077C59.1359 123.939 58.2328 122.773 58.3812 121.547C58.5406 120.228 59.6266 119.369 61.0188 119.467C61.9422 119.533 62.8656 119.611 63.9125 119.694C63.7078 119.373 63.5812 119.158 63.4375 118.953C59.2375 112.977 56.8484 106.348 56.2859 99.0609C56.2672 98.8094 56.2016 98.5609 56.1562 98.3094C56.1562 96.6984 56.1562 95.0859 56.1562 93.475V93.4766Z" fill="#00B373"/>
<path d="M120.248 95.9937C120.234 109.328 109.341 120.183 96.014 120.142C82.7077 120.102 71.8921 109.245 71.9077 95.9469C71.9234 82.6125 82.8124 71.7625 96.1405 71.8016C109.448 71.8391 120.264 82.6937 120.248 95.9953V95.9937ZM83.5062 81.1578C84.1749 81.1578 84.6921 81.15 85.2077 81.1578C87.8421 81.2078 90.0093 82.9953 90.4905 85.5844C90.6265 86.3172 90.5921 87.0828 90.6155 87.8328C90.6421 88.7031 90.8343 88.9109 91.7234 88.9609C95.489 89.1781 98.4062 92.225 98.414 95.9516C98.4218 99.6797 95.5062 102.756 91.7593 102.977C90.8171 103.031 90.6827 103.169 90.6077 104.148C90.4202 106.605 88.6687 108.662 86.2421 109.075C85.1015 109.269 83.914 109.186 82.7484 109.223C82.4905 109.231 82.2312 109.223 81.7952 109.223C85.1796 112.716 89.0702 114.691 93.739 115.322C93.739 114.064 93.7312 112.873 93.739 111.681C93.764 108.572 95.9905 106.253 99.0796 106.108C100.583 106.037 101.472 105.147 101.537 103.648C101.711 99.65 104.7 96.7734 108.717 96.7516C110.719 96.7406 112.72 96.75 114.72 96.75C114.992 96.75 115.264 96.75 115.553 96.75C115.636 94.1859 115.283 91.8266 114.439 89.4859C112.256 90.1609 110.156 90.8266 108.047 91.4609C104.411 92.5547 100.778 91.0187 99.164 87.725C97.564 84.4594 98.5562 80.6719 101.592 78.4594C101.936 78.2078 102.275 77.95 102.664 77.6609C96.214 75.2234 88.5155 76.6984 83.5062 81.1578V81.1578ZM81.9999 104.548C82.9874 104.548 83.9749 104.544 84.9609 104.55C85.5468 104.553 85.928 104.308 85.9359 103.694C85.9687 100.723 88.489 98.2547 91.5499 98.2859C92.5046 98.2953 93.2046 97.7125 93.5655 96.8109C94.1827 95.2687 93.0843 93.7156 91.3312 93.6297C88.5359 93.4922 86.4343 91.6719 86.0109 88.9562C85.903 88.2703 85.9421 87.5578 85.9468 86.8578C85.9515 86.1344 85.6124 85.8234 84.8984 85.8297C83.2359 85.8437 81.5734 85.8172 79.9109 85.8531C79.6687 85.8578 79.3249 86.0625 79.2062 86.2734C75.9827 92.0625 75.7234 98.0031 78.3749 104.066C78.4734 104.291 78.8562 104.511 79.1171 104.527C80.0749 104.581 81.039 104.548 81.9999 104.548V104.548ZM114.733 101.433C112.587 101.433 110.509 101.402 108.433 101.444C107.195 101.469 106.308 102.456 106.208 103.727C106.159 104.345 106.109 104.975 105.953 105.57C105.166 108.556 102.622 110.598 99.503 110.769C98.9202 110.8 98.4405 110.928 98.4265 111.608C98.4015 112.825 98.4202 114.042 98.4202 115.264C105.966 114.575 112.816 108.656 114.734 101.431L114.733 101.433ZM107.364 80.1016C107.151 80.2453 106.956 80.3703 106.769 80.5062C105.862 81.1578 104.934 81.7781 104.062 82.4734C103.109 83.2312 102.845 84.4812 103.323 85.5687C103.798 86.6531 104.928 87.3859 106.1 87.0937C108.175 86.5766 110.209 85.8969 112.348 85.2594C110.942 83.1719 109.328 81.4859 107.364 80.1031V80.1016Z" fill="#00B373"/>
<path d="M124.506 75.1797C124.398 76.3391 124.336 77.3156 124.213 78.2844C124.027 79.7437 122.928 80.6703 121.628 80.5141C120.302 80.3547 119.464 79.2422 119.586 77.7719C119.813 75.0281 120.039 72.2844 120.284 69.5422C120.441 67.7969 121.389 66.9703 123.13 67.1078C125.978 67.3328 128.827 67.5594 131.667 67.8641C133.314 68.0406 134.203 69.6156 133.588 71.0656C133.183 72.0156 132.314 72.5453 131.214 72.4781C130.264 72.4203 129.316 72.3312 128.248 72.2469C128.419 72.5219 128.516 72.6953 128.63 72.8578C134.32 80.9656 136.695 89.9703 135.808 99.8141C135.286 105.608 133.506 111.028 130.569 116.058C129.809 117.359 128.438 117.791 127.261 117.109C126.091 116.433 125.77 115.028 126.53 113.711C129.895 107.875 131.513 101.589 131.3 94.8609C131.078 87.8266 128.933 81.4109 124.872 75.6484C124.798 75.5437 124.716 75.4453 124.508 75.1781L124.506 75.1797Z" fill="#00B373"/>
<path d="M72.3625 63.6516C74.4891 62.4328 76.4782 61.0891 78.6297 60.0906C91.3735 54.1813 103.914 54.6906 116.195 61.5016C117.467 62.2063 117.883 63.5938 117.241 64.7531C116.586 65.9344 115.155 66.2891 113.856 65.5391C108.025 62.1656 101.741 60.5453 95.0141 60.7484C88.0344 60.9578 81.661 63.0672 75.925 67.0672C75.761 67.1813 75.6094 67.3125 75.3313 67.5297C76.1219 67.6094 76.7766 67.6766 77.4313 67.7406C77.7922 67.7766 78.1578 67.7953 78.5157 67.85C79.8625 68.0563 80.7547 69.1375 80.6219 70.3891C80.4875 71.6656 79.4125 72.5672 78.0625 72.4734C76.3782 72.3578 74.6969 72.1953 73.0157 72.0531C71.9282 71.9609 70.8422 71.8672 69.7547 71.775C67.9094 71.6203 67.0735 70.6969 67.2172 68.8672C67.4422 66.0188 67.6688 63.1703 67.9797 60.3313C68.1578 58.7016 69.775 57.8328 71.2157 58.4797C72.1532 58.9 72.6547 59.7656 72.5813 60.8813C72.5203 61.8109 72.4344 62.7406 72.3625 63.6484V63.6516Z" fill="#00B373"/>
</g>
<text fill="#18332F" xml:space="preserve" style="white-space: pre" font-family="Manrope" font-size="56" font-weight="bold" letter-spacing="0.02em"><tspan x="56" y="217.448">Nome da </tspan><tspan x="56" y="289.448">Solu&#xe7;&#xe3;o</tspan></text>
<text fill="#00B373" xml:space="preserve" style="white-space: pre" font-family="Manrope" font-size="20" font-weight="500" letter-spacing="0.02em"><tspan x="56" y="351.66">Lorem ipsum dolor sit amet, </tspan><tspan x="56" y="383.66">consectetur adipiscing elit.</tspan></text>
<text fill="#18332F" xml:space="preserve" style="white-space: pre" font-family="Manrope" font-size="20" font-weight="500" letter-spacing="0.02em"><tspan x="56.2879" y="447.66">Saiba Mais</tspan></text>
<path fill-rule="evenodd" clip-rule="evenodd" d="M170.5 440C170.5 439.811 170.572 439.629 170.701 439.495C170.83 439.361 171.005 439.286 171.187 439.286H179.152L176.2 436.221C176.071 436.087 175.999 435.905 175.999 435.715C175.999 435.525 176.071 435.344 176.2 435.209C176.329 435.075 176.504 435 176.687 435C176.869 435 177.044 435.075 177.174 435.209L181.298 439.494C181.362 439.561 181.413 439.64 181.448 439.726C181.482 439.813 181.5 439.906 181.5 440C181.5 440.094 181.482 440.187 181.448 440.274C181.413 440.36 181.362 440.439 181.298 440.506L177.174 444.791C177.044 444.925 176.869 445 176.687 445C176.504 445 176.329 444.925 176.2 444.791C176.071 444.656 175.999 444.475 175.999 444.285C175.999 444.095 176.071 443.913 176.2 443.779L179.152 440.714H171.187C171.005 440.714 170.83 440.639 170.701 440.505C170.572 440.371 170.5 440.189 170.5 440Z" fill="#18332F"/>
<defs>
<clipPath id="clip0_274_308">
<rect width="80" height="80" fill="white" transform="translate(56 56)"/>
</clipPath>
</defs>
</svg>
