<svg width="41" height="48" viewBox="0 0 41 48" fill="none" xmlns="http://www.w3.org/2000/svg">
<path d="M20.4976 47.6596C20.1266 47.6638 19.983 47.1804 20.2974 46.9833C24.9499 44.0668 27.5136 38.8542 26.7908 33.7433C25.9745 27.9691 21.3238 24.8713 19.7584 23.9806C19.03 23.5662 18.3334 23.0978 17.6831 22.5697C14.4542 19.9482 12.7672 16.6081 13.4193 13.8762C13.78 12.3651 14.8247 11.1713 14.9164 11.0683C16.7882 8.97035 19.4567 8.55598 20.6786 8.54526C26.1976 8.49865 36.0145 12.0206 39.1265 22.0663C41.7478 30.5271 38.9614 39.4695 31.114 44.5282C26.9349 47.2224 23.0108 47.6302 20.4976 47.6596ZM9.10596 35.5304C6.35466 34.9589 5.00731 34.3446 5.00731 34.3446C5.00731 34.3446 6.21572 33.934 8.56656 33.8785C5.93268 29.0002 6.17081 24.3451 6.3701 22.5571C6.37572 22.5063 6.45009 22.5058 6.45617 22.5571C6.59886 23.7359 6.92213 25.6152 7.73148 27.799C8.71345 26.3638 9.43063 25.4293 9.43063 25.4293C9.43063 25.4293 9.34268 26.7829 8.50433 29.1582C8.44211 29.3348 8.45241 29.5287 8.53287 29.6979C9.22853 31.1587 10.1502 32.696 11.374 34.2108C12.2381 35.2806 13.1438 36.203 14.0476 36.9982C15.0432 33.4744 15.8647 31.2725 15.8647 31.2725C15.8647 31.2725 16.2867 33.6119 15.9606 38.0898C15.9423 38.3392 16.0593 38.5797 16.2661 38.7209C18.3147 40.1207 20.1631 40.9033 21.2639 41.3125C22.455 39.5469 22.9397 37.3986 22.8424 35.5136C22.6636 32.0527 20.4924 28.9158 17.2265 27.2597C16.9229 27.1059 11.9008 24.7142 10.4454 20.2428C9.31414 16.7666 9.69823 13.7657 10.5651 12.1045C10.7392 11.7712 10.3569 11.4501 10.0379 11.65C6.87676 13.6319 1.6076 18.6552 0.995209 26.5922C0.391709 34.4173 4.78182 42.7146 11.3646 44.4187C11.9929 44.5814 15.7562 45.6693 19.0263 43.5326C19.2405 43.3928 19.445 43.2436 19.6401 43.087C18.2675 42.6423 13.4975 40.9289 9.9532 36.0762C9.74829 35.7956 9.44654 35.6008 9.1055 35.5299L9.10596 35.5304ZM10.0692 6.58432C11.0203 8.71585 13.22 9.81122 14.9828 9.03095C16.7456 8.25021 17.4038 5.88935 16.4528 3.75781C15.5017 1.62628 13.3019 0.530912 11.5391 1.31118C9.77636 2.09192 9.11812 4.45279 10.0692 6.58432ZM18.2272 3.71073C18.529 5.49548 19.9694 6.7414 21.4454 6.49389C22.921 6.24639 23.873 4.59915 23.5712 2.8144C23.2695 1.02965 21.829 -0.216267 20.353 0.0312388C18.8775 0.278745 17.9255 1.92599 18.2272 3.71073ZM25.1268 3.84311C24.8316 5.41298 25.6447 6.88263 26.9429 7.12501C28.2411 7.36739 29.5332 6.29113 29.8284 4.7208C30.1236 3.15093 29.3106 1.68128 28.0123 1.4389C26.7141 1.19652 25.422 2.27278 25.1268 3.84311ZM30.9793 6.2655C30.4441 7.56316 30.8797 8.97128 31.9528 9.41083C33.026 9.85037 34.3299 9.15447 34.8651 7.85681C35.4003 6.55915 34.9647 5.15102 33.8915 4.71148C32.8183 4.27193 31.5145 4.96784 30.9793 6.2655V6.2655ZM35.6267 9.92821C34.9086 10.9854 35.0349 12.3203 35.9088 12.9099C36.7832 13.4996 38.0739 13.1206 38.792 12.0635C39.5102 11.0063 39.3839 9.67139 38.5099 9.08175C37.636 8.49212 36.3448 8.87107 35.6267 9.92821Z" fill="#84BD00"/>
</svg>
