<svg width="32" height="32" viewBox="0 0 32 32" fill="none" xmlns="http://www.w3.org/2000/svg">
<path d="M30.1714 21.033C30.1714 21.033 29.3935 21.0227 28.6022 20.5814C27.811 20.1401 27.6766 19.8209 27.3246 19.8569C26.9726 19.8918 27.0814 19.4556 27.0814 19.4556C27.0814 19.4556 27.0947 19.2616 26.7981 19.0687C26.7632 19.0461 26.6893 19.0091 26.5877 18.9609C27.1347 17.0191 27.1347 14.9829 26.5877 13.0411C26.6893 12.9939 26.7632 12.957 26.7981 12.9334C27.0937 12.7404 27.0814 12.5465 27.0814 12.5465C27.0814 12.5465 26.9726 12.1103 27.3246 12.1452C27.6766 12.1801 27.811 11.8609 28.6022 11.4206C29.3935 10.9793 30.1714 10.969 30.1714 10.969C32.2423 10.6026 32.0371 9.63689 31.9498 9.39468C31.84 9.16171 31.3023 8.33348 29.5792 9.53836C29.5792 9.53836 29.022 10.0813 28.1507 10.3286C27.2794 10.577 26.9582 10.4456 26.7345 10.7196C26.5108 10.9937 26.2788 10.6078 26.2788 10.6078C26.2788 10.6078 26.1506 10.461 25.8047 10.5339C25.7637 10.5421 25.6846 10.5688 25.5789 10.6078C24.721 9.07857 23.5131 7.78132 22.0343 6.81146C21.8249 6.67394 21.6115 6.54462 21.3939 6.42249C21.4329 6.31678 21.4586 6.23673 21.4678 6.1967C21.5407 5.85084 21.3939 5.72255 21.3939 5.72255C21.3939 5.72255 21.0081 5.4906 21.2821 5.26687C21.5561 5.04313 21.4247 4.7219 21.6731 3.85056C21.9214 2.97923 22.4633 2.42194 22.4633 2.42194C23.6681 0.698774 22.8399 0.160989 22.6069 0.0511739C22.3647 -0.0360623 21.3991 -0.241324 21.0327 1.82976C21.0327 1.82976 21.0224 2.60771 20.5811 3.39899C20.1399 4.19027 19.8207 4.32472 19.8566 4.67674C19.8915 5.02877 19.4554 4.91998 19.4554 4.91998C19.4554 4.91998 19.2614 4.90663 19.0685 5.20324C19.0459 5.23813 19.0079 5.31305 18.9607 5.41466C18.0032 5.14679 17.0088 5.00721 16.001 5.00721H15.9979C14.9933 5.00721 14.0029 5.14371 13.0413 5.41466C12.9941 5.31305 12.9572 5.23813 12.9336 5.20324C12.7407 4.90766 12.5467 4.91998 12.5467 4.91998C12.5467 4.91998 12.1105 5.02877 12.1454 4.67674C12.1803 4.32472 11.8612 4.19027 11.4209 3.39899C10.9796 2.60771 10.9694 1.82976 10.9694 1.82976C10.6009 -0.24235 9.63628 -0.0370886 9.39306 0.0501475C9.1601 0.159962 8.33193 0.697747 9.53673 2.42092C9.53673 2.42092 10.0796 2.9782 10.3269 3.84954C10.5753 4.72087 10.4439 5.04211 10.7179 5.26584C10.9919 5.48958 10.6061 5.72152 10.6061 5.72152C10.6061 5.72152 10.4593 5.84981 10.5322 6.19568C10.5404 6.23673 10.5671 6.31473 10.6051 6.42044C8.84505 7.40672 7.40626 8.8456 6.42004 10.6057C6.31434 10.5667 6.23634 10.5411 6.19529 10.5329C5.84945 10.46 5.72117 10.6067 5.72117 10.6067C5.72117 10.6067 5.48924 10.9926 5.26552 10.7186C5.0418 10.4446 4.72058 10.576 3.8493 10.3276C2.97803 10.0792 2.42078 9.53733 2.42078 9.53733C0.697718 8.33245 0.159967 9.16068 0.0501596 9.39365C-0.0370709 9.63586 -0.242319 10.6016 1.82864 10.968C1.82864 10.968 2.60653 10.9783 3.39776 11.4196C4.18899 11.8609 4.32343 12.1801 4.67543 12.1442C5.02743 12.1093 4.91865 12.5454 4.91865 12.5454C4.91865 12.5454 4.90531 12.7394 5.20189 12.9324C5.23678 12.9549 5.31067 12.9919 5.41227 13.0401C4.86528 14.9819 4.86528 17.0171 5.41227 18.9599C5.31067 19.0071 5.23678 19.044 5.20189 19.0676C4.90633 19.2606 4.91865 19.4545 4.91865 19.4545C4.91865 19.4545 5.02743 19.8907 4.67543 19.8558C4.32343 19.8209 4.18899 20.1401 3.39776 20.5804C2.60653 21.0217 1.82864 21.032 1.82864 21.032C-0.242319 21.3984 -0.0370709 22.3641 0.0501596 22.6063C0.159967 22.8393 0.697718 23.6675 2.42078 22.4627C2.42078 22.4627 2.97803 21.9197 3.8493 21.6724C4.72058 21.424 5.0418 21.5554 5.26552 21.2814C5.48924 21.0073 5.72117 21.3932 5.72117 21.3932C5.72117 21.3932 5.84945 21.54 6.19529 21.4671C6.23634 21.4589 6.31536 21.4322 6.42106 21.3932C7.279 22.9224 8.48689 24.2197 9.9657 25.1896C10.1751 25.3271 10.3885 25.4564 10.6061 25.5785C10.5671 25.6842 10.5414 25.7643 10.5322 25.8043C10.4593 26.1502 10.6061 26.2785 10.6061 26.2785C10.6061 26.2785 10.9919 26.5104 10.7179 26.7341C10.4439 26.9579 10.5753 27.2791 10.3269 28.1504C10.0786 29.0218 9.53673 29.5791 9.53673 29.5791C8.33193 31.3022 9.1601 31.84 9.39306 31.9498C9.63525 32.0371 10.6009 32.2423 10.9673 30.1712C10.9673 30.1712 10.9776 29.3933 11.4189 28.602C11.8601 27.8107 12.1793 27.6763 12.1434 27.3243C12.1085 26.9722 12.5446 27.081 12.5446 27.081C12.5446 27.081 12.7386 27.0944 12.9315 26.7978C12.9541 26.7629 12.9921 26.688 13.0393 26.5864C13.9978 26.8542 14.9933 26.9938 16.0021 26.9938C17.0108 26.9938 17.9971 26.8573 18.9587 26.5864C19.0059 26.688 19.0428 26.7629 19.0664 26.7978C19.2593 27.0933 19.4533 27.081 19.4533 27.081C19.4533 27.081 19.8895 26.9722 19.8546 27.3243C19.8197 27.6763 20.1388 27.8107 20.5791 28.602C21.0204 29.3933 21.0306 30.1712 21.0306 30.1712C21.397 32.2423 22.3627 32.0371 22.6049 31.9498C22.8378 31.84 23.666 31.3022 22.4612 29.5791C22.4612 29.5791 21.9183 29.0218 21.671 28.1504C21.4227 27.2791 21.554 26.9579 21.28 26.7341C21.006 26.5104 21.3919 26.2785 21.3919 26.2785C21.3919 26.2785 21.5386 26.1502 21.4658 25.8043C21.4576 25.7633 21.4309 25.6853 21.3929 25.5795C23.1529 24.5933 24.5917 23.1544 25.5779 21.3943C25.6836 21.4333 25.7616 21.4589 25.8027 21.4671C26.1485 21.54 26.2768 21.3932 26.2768 21.3932C26.2768 21.3932 26.5087 21.0073 26.7324 21.2814C26.9562 21.5554 27.2774 21.424 28.1486 21.6724C29.0199 21.9208 29.5772 22.4627 29.5772 22.4627C31.3002 23.6675 31.838 22.8393 31.9478 22.6063C32.035 22.3641 32.2403 21.3984 30.1693 21.032L30.1714 21.033ZM23.8743 17.833C23.6209 17.7314 23.4577 17.6667 23.4577 17.6667C23.4577 17.6667 23.1385 17.5836 22.9405 17.7693C22.9405 17.7693 21.6731 17.2408 20.6458 16.896C20.6458 16.896 20.3831 16.896 20.1984 16.9555C20.0136 17.015 19.8289 16.8292 19.8289 16.8292C19.8289 16.8292 19.5159 16.3089 19.0818 16.2124C19.0921 16.0718 19.091 15.9302 19.0818 15.7886C19.5159 15.6921 19.8289 15.1718 19.8289 15.1718C19.8289 15.1718 20.0136 14.986 20.1984 15.0455C20.3831 15.1051 20.6458 15.1051 20.6458 15.1051C21.6741 14.7602 22.9405 14.2317 22.9405 14.2317C23.1385 14.4174 23.4577 14.3343 23.4577 14.3343C23.4577 14.3343 23.6219 14.2696 23.8754 14.167C24.1637 15.3986 24.1504 16.6496 23.8743 17.8309V17.833ZM22.8645 11.7275C22.6131 11.8352 22.451 11.905 22.451 11.905C22.451 11.905 22.1667 12.0723 22.1574 12.3433C22.1574 12.3433 20.888 12.8657 19.9172 13.349C19.9172 13.349 19.7324 13.5348 19.6432 13.7082C19.5549 13.8807 19.2922 13.8796 19.2922 13.8796C19.2922 13.8796 18.7031 13.7329 18.3285 13.972C18.2352 13.8642 18.1356 13.7637 18.0289 13.6713C18.267 13.2967 18.1212 12.7076 18.1212 12.7076C18.1212 12.7076 18.1202 12.4459 18.2926 12.3566C18.465 12.2683 18.6518 12.0826 18.6518 12.0826C19.1352 11.1117 19.6575 9.84215 19.6575 9.84215C19.9285 9.83291 20.0957 9.54862 20.0957 9.54862C20.0957 9.54862 20.1655 9.38647 20.2733 9.13502C21.3036 9.77544 22.1975 10.6519 22.8645 11.7254V11.7275ZM15.9969 7.91269C16.6188 7.91269 17.2346 7.98556 17.8318 8.12513C17.7302 8.37863 17.6646 8.54284 17.6646 8.54284C17.6646 8.54284 17.5814 8.86202 17.7672 9.0601C17.7672 9.0601 17.2387 10.3276 16.8939 11.3549C16.8939 11.3549 16.8939 11.6177 16.9534 11.8024C17.0129 11.9871 16.8272 12.1719 16.8272 12.1719C16.8272 12.1719 16.3068 12.4849 16.2104 12.919C16.1396 12.9139 16.0688 12.9108 15.9969 12.9108C15.9251 12.9108 15.8563 12.9139 15.7855 12.919C15.689 12.4849 15.1687 12.1719 15.1687 12.1719C15.1687 12.1719 14.983 11.9871 15.0425 11.8024C15.102 11.6177 15.102 11.3549 15.102 11.3549C14.7572 10.3266 14.2287 9.0601 14.2287 9.0601C14.4145 8.86202 14.3313 8.54284 14.3313 8.54284C14.3313 8.54284 14.2667 8.37863 14.1651 8.12513C14.7736 7.98248 15.3863 7.91166 15.9938 7.91166L15.9969 7.91269ZM11.7267 9.13707C11.8345 9.38852 11.9043 9.55068 11.9043 9.55068C11.9043 9.55068 12.0715 9.83496 12.3425 9.8442C12.3425 9.8442 12.8648 11.1137 13.3482 12.0846C13.3482 12.0846 13.5339 12.2694 13.7074 12.3587C13.8808 12.4479 13.8788 12.7097 13.8788 12.7097C13.8788 12.7097 13.732 13.2988 13.9711 13.6734C13.8634 13.7667 13.7638 13.8673 13.6715 13.973C13.2969 13.7349 12.7078 13.8807 12.7078 13.8807C12.7078 13.8807 12.4461 13.8817 12.3568 13.7093C12.2686 13.5369 12.0828 13.3501 12.0828 13.3501C11.112 12.8667 9.84255 12.3443 9.84255 12.3443C9.83332 12.0733 9.54905 11.9061 9.54905 11.9061C9.54905 11.9061 9.38793 11.8363 9.1365 11.7285C9.77687 10.6981 10.6523 9.80417 11.7267 9.13707ZM8.12565 14.1701C8.37913 14.2717 8.5423 14.3363 8.5423 14.3363C8.5423 14.3363 8.86147 14.4195 9.05953 14.2337C9.05953 14.2337 10.3269 14.7623 11.3542 15.1071C11.3542 15.1071 11.6169 15.1071 11.8016 15.0476C11.9864 14.9881 12.1711 15.1738 12.1711 15.1738C12.1711 15.1738 12.4841 15.6942 12.9182 15.7906C12.9079 15.9312 12.909 16.0729 12.9182 16.2145C12.4841 16.311 12.1711 16.8313 12.1711 16.8313C12.1711 16.8313 11.9864 17.0171 11.8016 16.9575C11.6169 16.898 11.3542 16.898 11.3542 16.898C10.3259 17.2429 9.05953 17.7714 9.05953 17.7714C8.86147 17.5856 8.5423 17.6688 8.5423 17.6688C8.5423 17.6688 8.37811 17.7334 8.12462 17.8361C7.83625 16.6045 7.84959 15.3534 8.12565 14.1721V14.1701ZM9.13547 20.2756C9.3869 20.1678 9.54905 20.098 9.54905 20.098C9.54905 20.098 9.83332 19.9307 9.84255 19.6598C9.84255 19.6598 11.112 19.1374 12.0828 18.654C12.0828 18.654 12.2676 18.4683 12.3568 18.2948C12.4451 18.1224 12.7078 18.1234 12.7078 18.1234C12.7078 18.1234 13.2969 18.2702 13.6715 18.0311C13.7648 18.1388 13.8644 18.2394 13.9711 18.3318C13.733 18.7064 13.8788 19.2955 13.8788 19.2955C13.8788 19.2955 13.8798 19.5572 13.7074 19.6465C13.535 19.7347 13.3482 19.9205 13.3482 19.9205C12.8648 20.8914 12.3425 22.1609 12.3425 22.1609C12.0715 22.1702 11.9043 22.4544 11.9043 22.4544C11.9043 22.4544 11.8345 22.6166 11.7267 22.868C10.6964 22.2276 9.80253 21.3512 9.13547 20.2776V20.2756ZM16.0031 24.0904C15.3812 24.0904 14.7654 24.0175 14.1682 23.8779C14.2698 23.6244 14.3354 23.4602 14.3354 23.4602C14.3354 23.4602 14.4186 23.141 14.2328 22.943C14.2328 22.943 14.7613 21.6755 15.1061 20.6481C15.1061 20.6481 15.1061 20.3854 15.0466 20.2007C14.9871 20.0159 15.1728 19.8312 15.1728 19.8312C15.1728 19.8312 15.6932 19.5182 15.7896 19.084C15.8604 19.0892 15.9312 19.0923 16.0031 19.0923C16.0749 19.0923 16.1437 19.0892 16.2145 19.084C16.311 19.5182 16.8313 19.8312 16.8313 19.8312C16.8313 19.8312 17.017 20.0159 16.9575 20.2007C16.898 20.3854 16.898 20.6481 16.898 20.6481C17.2428 21.6765 17.7713 22.943 17.7713 22.943C17.5855 23.141 17.6687 23.4602 17.6687 23.4602C17.6687 23.4602 17.7333 23.6244 17.8359 23.8779C17.2274 24.0206 16.6147 24.0914 16.0072 24.0914L16.0031 24.0904ZM20.2733 22.866C20.1655 22.6145 20.0957 22.4524 20.0957 22.4524C20.0957 22.4524 19.9285 22.1681 19.6575 22.1589C19.6575 22.1589 19.1352 20.8893 18.6518 19.9184C18.6518 19.9184 18.4661 19.7337 18.2926 19.6444C18.1202 19.5561 18.1212 19.2934 18.1212 19.2934C18.1212 19.2934 18.268 18.7043 18.0289 18.3297C18.1366 18.2363 18.2362 18.1357 18.3285 18.03C18.7031 18.2681 19.2922 18.1224 19.2922 18.1224C19.2922 18.1224 19.5539 18.1214 19.6432 18.2938C19.7314 18.4662 19.9172 18.653 19.9172 18.653C20.888 19.1364 22.1574 19.6588 22.1574 19.6588C22.1667 19.9297 22.451 20.097 22.451 20.097C22.451 20.097 22.6121 20.1668 22.8635 20.2746C22.2231 21.305 21.3477 22.1989 20.2733 22.866Z" fill="#DEEFBF"/>
</svg>
