<svg width="16" height="16" viewBox="0 0 16 16" fill="none" xmlns="http://www.w3.org/2000/svg">
<g id="ArrowUp">
<path id="Vector" fill-rule="evenodd" clip-rule="evenodd" d="M8 13.5C7.81059 13.5 7.62895 13.4276 7.49502 13.2987C7.36108 13.1697 7.28584 12.9949 7.28584 12.8126L7.28584 4.84809L4.22068 7.79989C4.08658 7.92897 3.9047 8.00148 3.71506 8.00148C3.52541 8.00148 3.34354 7.92897 3.20944 7.79989C3.07534 7.67081 3 7.49574 3 7.31319C3 7.13064 3.07534 6.95557 3.20944 6.8265L7.49438 2.70196C7.56072 2.63794 7.63952 2.58715 7.72629 2.55249C7.81305 2.51784 7.90606 2.5 8 2.5C8.09394 2.5 8.18695 2.51784 8.27371 2.55249C8.36048 2.58715 8.43928 2.63794 8.50562 2.70196L12.7906 6.82649C12.9247 6.95557 13 7.13064 13 7.31319C13 7.49574 12.9247 7.67081 12.7906 7.79989C12.6565 7.92897 12.4746 8.00148 12.2849 8.00148C12.0953 8.00148 11.9134 7.92897 11.7793 7.79989L8.71416 4.84809L8.71416 12.8126C8.71416 12.9949 8.63892 13.1697 8.50499 13.2987C8.37106 13.4276 8.18941 13.5 8 13.5Z" fill="currentColor"/>
</g>
</svg>
