<svg width="16" height="16" viewBox="0 0 16 16" fill="none" xmlns="http://www.w3.org/2000/svg">
<g id="ArrowLeft">
<path id="Vector" fill-rule="evenodd" clip-rule="evenodd" d="M13.5 8C13.5 8.18941 13.4276 8.37105 13.2987 8.50498C13.1697 8.63892 12.9949 8.71416 12.8126 8.71416L4.84809 8.71416L7.79989 11.7793C7.92897 11.9134 8.00148 12.0953 8.00148 12.2849C8.00148 12.4746 7.92897 12.6565 7.79989 12.7906C7.67081 12.9247 7.49574 13 7.31319 13C7.13064 13 6.95557 12.9247 6.8265 12.7906L2.70196 8.50562C2.63794 8.43928 2.58715 8.36048 2.55249 8.27371C2.51784 8.18695 2.5 8.09394 2.5 8C2.5 7.90606 2.51784 7.81305 2.55249 7.72629C2.58715 7.63952 2.63794 7.56072 2.70196 7.49438L6.82649 3.20944C6.95557 3.07534 7.13064 3 7.31319 3C7.49574 3 7.67081 3.07534 7.79989 3.20944C7.92897 3.34353 8.00148 3.52541 8.00148 3.71506C8.00148 3.9047 7.92897 4.08658 7.79989 4.22068L4.84809 7.28584L12.8126 7.28584C12.9949 7.28584 13.1697 7.36108 13.2987 7.49501C13.4276 7.62894 13.5 7.81059 13.5 8Z" fill="currentColor"/>
</g>
</svg>
