<svg width="16" height="16" viewBox="0 0 16 16" fill="none" xmlns="http://www.w3.org/2000/svg">
<g id="ArrowDown">
<path id="Vector" fill-rule="evenodd" clip-rule="evenodd" d="M8 2.5C8.18941 2.5 8.37105 2.57242 8.50498 2.70134C8.63892 2.83026 8.71416 3.00511 8.71416 3.18742L8.71416 11.1519L11.7793 8.20011C11.9134 8.07103 12.0953 7.99852 12.2849 7.99852C12.4746 7.99852 12.6565 8.07103 12.7906 8.20011C12.9247 8.32919 13 8.50426 13 8.68681C13 8.86936 12.9247 9.04443 12.7906 9.1735L8.50562 13.298C8.43928 13.3621 8.36048 13.4129 8.27371 13.4475C8.18695 13.4822 8.09394 13.5 8 13.5C7.90606 13.5 7.81305 13.4822 7.72629 13.4475C7.63952 13.4129 7.56071 13.3621 7.49438 13.298L3.20944 9.1735C3.07534 9.04442 3 8.86935 3 8.68681C3 8.50426 3.07534 8.32919 3.20944 8.20011C3.34353 8.07103 3.52541 7.99852 3.71506 7.99852C3.9047 7.99852 4.08658 8.07103 4.22068 8.20011L7.28584 11.1519L7.28584 3.18742C7.28584 3.00511 7.36108 2.83026 7.49501 2.70134C7.62894 2.57242 7.81059 2.5 8 2.5Z" fill="currentColor"/>
</g>
</svg>
