<svg width="16" height="16" viewBox="0 0 16 16" fill="none" xmlns="http://www.w3.org/2000/svg">
<g id="ArrowRight">
<path id="Vector" fill-rule="evenodd" clip-rule="evenodd" d="M2.5 8C2.5 7.81059 2.57242 7.62895 2.70134 7.49502C2.83026 7.36108 3.00511 7.28584 3.18742 7.28584H11.1519L8.20011 4.22068C8.07103 4.08658 7.99852 3.9047 7.99852 3.71506C7.99852 3.52541 8.07103 3.34354 8.20011 3.20944C8.32919 3.07534 8.50426 3 8.68681 3C8.86936 3 9.04443 3.07534 9.1735 3.20944L13.298 7.49438C13.3621 7.56072 13.4129 7.63952 13.4475 7.72629C13.4822 7.81305 13.5 7.90606 13.5 8C13.5 8.09394 13.4822 8.18695 13.4475 8.27371C13.4129 8.36048 13.3621 8.43928 13.298 8.50562L9.1735 12.7906C9.04443 12.9247 8.86936 13 8.68681 13C8.50426 13 8.32919 12.9247 8.20011 12.7906C8.07103 12.6565 7.99852 12.4746 7.99852 12.2849C7.99852 12.0953 8.07103 11.9134 8.20011 11.7793L11.1519 8.71416H3.18742C3.00511 8.71416 2.83026 8.63892 2.70134 8.50499C2.57242 8.37106 2.5 8.18941 2.5 8Z" fill="currentColor"/>
</g>
</svg>
