<svg width="32" height="32" viewBox="0 0 32 32" fill="none" xmlns="http://www.w3.org/2000/svg">
<path fill-rule="evenodd" clip-rule="evenodd" d="M9 21.3333C9 21.1565 9.06705 20.987 9.18639 20.8619C9.30573 20.7369 9.46759 20.6667 9.63636 20.6667H22.3636C22.5324 20.6667 22.6943 20.7369 22.8136 20.8619C22.933 20.987 23 21.1565 23 21.3333C23 21.5101 22.933 21.6797 22.8136 21.8047C22.6943 21.9298 22.5324 22 22.3636 22H9.63636C9.46759 22 9.30573 21.9298 9.18639 21.8047C9.06705 21.6797 9 21.5101 9 21.3333ZM9 16C9 15.8232 9.06705 15.6536 9.18639 15.5286C9.30573 15.4036 9.46759 15.3333 9.63636 15.3333H22.3636C22.5324 15.3333 22.6943 15.4036 22.8136 15.5286C22.933 15.6536 23 15.8232 23 16C23 16.1768 22.933 16.3464 22.8136 16.4714C22.6943 16.5964 22.5324 16.6667 22.3636 16.6667H9.63636C9.46759 16.6667 9.30573 16.5964 9.18639 16.4714C9.06705 16.3464 9 16.1768 9 16ZM9 10.6667C9 10.4899 9.06705 10.3203 9.18639 10.1953C9.30573 10.0702 9.46759 10 9.63636 10H22.3636C22.5324 10 22.6943 10.0702 22.8136 10.1953C22.933 10.3203 23 10.4899 23 10.6667C23 10.8435 22.933 11.013 22.8136 11.1381C22.6943 11.2631 22.5324 11.3333 22.3636 11.3333H9.63636C9.46759 11.3333 9.30573 11.2631 9.18639 11.1381C9.06705 11.013 9 10.8435 9 10.6667Z" fill="currentColor"/>
</svg>
