<svg width="7" height="6" viewBox="0 0 7 6" fill="none" xmlns="http://www.w3.org/2000/svg">
<path d="M5.22798 0.72749C5.33364 0.626907 5.47423 0.5713 5.6201 0.572404C5.76597 0.573508 5.9057 0.631235 6.00982 0.733406C6.11394 0.835576 6.17429 0.974198 6.17815 1.12002C6.182 1.26584 6.12906 1.40746 6.03048 1.51499L3.03798 5.25749C2.98653 5.31291 2.92442 5.35739 2.85538 5.38826C2.78634 5.41914 2.71179 5.43577 2.63617 5.43717C2.56056 5.43857 2.48544 5.42471 2.4153 5.39641C2.34517 5.36812 2.28146 5.32597 2.22798 5.27249L0.243484 3.28799C0.188219 3.23649 0.143893 3.17439 0.113149 3.10539C0.0824048 3.03639 0.0658733 2.96191 0.0645407 2.88638C0.0632081 2.81085 0.0771017 2.73583 0.105392 2.66579C0.133683 2.59575 0.175792 2.53213 0.229206 2.47871C0.28262 2.4253 0.346245 2.38319 0.416286 2.3549C0.486327 2.32661 0.561349 2.31271 0.636876 2.31405C0.712404 2.31538 0.786889 2.33191 0.855888 2.36265C0.924888 2.3934 0.986988 2.43772 1.03848 2.49299L2.60898 4.06274L5.21373 0.74399C5.21842 0.738216 5.22268 0.732707 5.22798 0.72749Z" fill="#18332F"/>
</svg>
