<svg width="16" height="16" viewBox="0 0 16 16" fill="none" xmlns="http://www.w3.org/2000/svg">
<g clip-path="url(#clip0_135_71)">
<path d="M8 15C6.14348 15 4.36301 14.2625 3.05025 12.9497C1.7375 11.637 1 9.85652 1 8C1 6.14348 1.7375 4.36301 3.05025 3.05025C4.36301 1.7375 6.14348 1 8 1C9.85652 1 11.637 1.7375 12.9497 3.05025C14.2625 4.36301 15 6.14348 15 8C15 9.85652 14.2625 11.637 12.9497 12.9497C11.637 14.2625 9.85652 15 8 15ZM8 16C10.1217 16 12.1566 15.1571 13.6569 13.6569C15.1571 12.1566 16 10.1217 16 8C16 5.87827 15.1571 3.84344 13.6569 2.34315C12.1566 0.842855 10.1217 0 8 0C5.87827 0 3.84344 0.842855 2.34315 2.34315C0.842855 3.84344 0 5.87827 0 8C0 10.1217 0.842855 12.1566 2.34315 13.6569C3.84344 15.1571 5.87827 16 8 16Z" fill="#E6EADC"/>
<path d="M10.97 4.97004C10.9628 4.97694 10.9562 4.98429 10.95 4.99204L7.47697 9.41704L5.38397 7.32304C5.2418 7.19056 5.05375 7.11843 4.85945 7.12186C4.66515 7.12529 4.47976 7.204 4.34235 7.34141C4.20494 7.47883 4.12623 7.66421 4.1228 7.85851C4.11937 8.05282 4.19149 8.24086 4.32397 8.38304L6.96997 11.03C7.04125 11.1012 7.12614 11.1573 7.21956 11.1949C7.31298 11.2325 7.41302 11.251 7.51372 11.2491C7.61442 11.2472 7.71371 11.2251 7.80567 11.184C7.89763 11.143 7.98038 11.0838 8.04897 11.01L12.041 6.02004C12.1769 5.87737 12.2512 5.68693 12.2479 5.4899C12.2445 5.29288 12.1637 5.10508 12.023 4.96713C11.8823 4.82918 11.693 4.75214 11.4959 4.75269C11.2988 4.75323 11.1099 4.83131 10.97 4.97004Z" fill="#E6EADC"/>
</g>
<defs>
<clipPath id="clip0_135_71">
<rect width="16" height="16" fill="white"/>
</clipPath>
</defs>
</svg>
