<svg width="32" height="29" viewBox="0 0 32 29" fill="none" xmlns="http://www.w3.org/2000/svg">
<path d="M0 28.7419L0.769759 22.9037C2.4559 23.0534 3.79381 22.7727 4.7835 22.0617C5.77319 21.3132 6.43299 20.284 6.76289 18.9741C7.12944 17.6269 7.22108 16.1112 7.0378 14.4271H0V0H13.5808V14.9885C13.5808 19.891 12.4444 23.5961 10.1718 26.1035C7.8992 28.6109 4.50859 29.4904 0 28.7419ZM18.4192 28.7419L19.189 22.9037C20.8751 23.0534 22.2131 22.7727 23.2027 22.0617C24.1924 21.3132 24.8522 20.284 25.1821 18.9741C25.5487 17.6269 25.6403 16.1112 25.457 14.4271H18.4192V0H32V14.9885C32 19.891 30.8637 23.5961 28.5911 26.1035C26.3184 28.6109 22.9278 29.4904 18.4192 28.7419Z" fill="#C2E189"/>
</svg>
