<svg width="16" height="16" viewBox="0 0 16 16" fill="none" xmlns="http://www.w3.org/2000/svg">
<g clip-path="url(#clip0_1019_1704)">
<path d="M11 2.50001C10.9999 1.91344 11.2061 1.34552 11.5825 0.89562C11.9588 0.445715 12.4814 0.142472 13.0588 0.038946C13.6361 -0.0645804 14.2315 0.0382022 14.7408 0.329311C15.25 0.62042 15.6406 1.08132 15.8444 1.63137C16.0481 2.18142 16.0519 2.78559 15.8552 3.33818C15.6585 3.89077 15.2737 4.3566 14.7682 4.65415C14.2627 4.95171 13.6687 5.06204 13.0901 4.96586C12.5115 4.86968 11.9851 4.5731 11.603 4.12801L4.88502 7.24801C5.03946 7.73745 5.03946 8.26257 4.88502 8.75201L11.603 11.872C12.0069 11.4023 12.5707 11.0993 13.1852 11.0217C13.7997 10.944 14.4212 11.0973 14.9292 11.4517C15.4372 11.8062 15.7955 12.3366 15.9347 12.9401C16.0739 13.5437 15.9841 14.1775 15.6826 14.7186C15.3812 15.2597 14.8896 15.6696 14.3031 15.869C13.7166 16.0683 13.077 16.0428 12.5083 15.7974C11.9396 15.552 11.4822 15.1043 11.2247 14.5409C10.9673 13.9775 10.9282 13.3386 11.115 12.748L4.39702 9.62801C4.06446 10.0156 3.62117 10.292 3.1268 10.4201C2.63243 10.5482 2.11069 10.5218 1.63176 10.3445C1.15283 10.1672 0.739697 9.84744 0.447928 9.4283C0.15616 9.00915 -0.000244141 8.5107 -0.000244141 8.00001C-0.000244141 7.48931 0.15616 6.99087 0.447928 6.57172C0.739697 6.15258 1.15283 5.83284 1.63176 5.65553C2.11069 5.47822 2.63243 5.45183 3.1268 5.57992C3.62117 5.70801 4.06446 5.98444 4.39702 6.37201L11.115 3.25201C11.0386 3.00868 10.9998 2.75507 11 2.50001Z" fill="currentColor"/>
</g>
<defs>
<clipPath id="clip0_1019_1704">
<rect width="16" height="16" fill="currentColor"/>
</clipPath>
</defs>
</svg>
